<?xml version="1.0" encoding="UTF-8"?>
<svg id="Layer_2" data-name="Layer 2" xmlns="http://www.w3.org/2000/svg" viewBox="0 0 134.07 127.85">
  <g id="Layer_1-2" data-name="Layer 1">
    <g>
      <path d="m128.14,68.31c4.14,5.69,6.35,11.97,5.88,18.94-.65,9.49-6.74,17.11-14.73,19.97-.72.26-1.43.58-2.17.69-1.41.19-1.81.85-1.87,2.31-.24,6.43-3.92,11.3-9.88,13.08-3.26.97-6.6.87-9.93.1-.31-.07-.8.1-1.05.32-2,1.75-4.14,3.21-6.81,3.76-8.17,1.68-15.31-2.91-16.92-10.98-.26-1.29-.3-2.65-.3-3.97-.02-33.54-.03-67.07-.04-100.61,0-1.41-.02-2.82,0-4.23.05-4.77,3.38-7.88,8.16-7.67,2.05.09,3.85.76,5.42,2.11.32.28.98.42,1.39.31,6.22-1.74,11.89.9,14.44,6.83.34.79.49,1.67.67,2.52.16.76.45.94,1.27.72,5.48-1.51,10.4-.44,14.63,3.4,4.14,3.76,5.11,8.56,4.36,13.85-.14.98.04,1.36,1.05,1.68,5.04,1.58,9.38,6.54,9.83,12.93.25,3.49-.59,6.72-2.58,9.61-.48.7-.39,1.23.04,1.85,1.3,1.91,1.83,4.05,1.93,6.35.1,2.24-.64,4.1-2.3,5.6-.19.17-.34.39-.46.53Zm-8.73-36.2c1.25-5.44.49-10.15-3.65-14.04-4.78-4.5-10.06-4.94-15.9-2.2-.08-.65-.14-1.32-.26-1.99-.69-3.87-2.48-7.01-6.09-8.84-2.54-1.29-5.16-1.07-7.76-.15-.64.23-1.09.27-1.46-.5-.22-.47-.76-.82-1.21-1.14-1.36-.94-2.93-.93-4.51-.89-2.93.07-5.52,1.95-6.2,4.79-.37,1.53-.46,3.16-.46,4.74-.03,25.85,0,51.7-.03,77.54,0,6.98.53,13.91,2.08,20.73.97,4.24,2.97,7.97,5.89,11.17,2.3,2.52,5.45,3.08,8.65,3.21,2.53.1,4.32-1.38,5.87-3.24.26-.31,1.02-.46,1.45-.34,2.92.83,5.91,1.02,8.8.24,6.28-1.7,10.6-7.46,9.07-14.7-.11-.54-.3-1.06-.49-1.69.33,0,.51-.02.69,0,5.17.59,9.36-1.22,12.52-5.29,4.1-5.27,4.8-11.17,2.67-17.36-1.97-5.74-5.02-10.75-10.63-13.73-.15-.08-.24-.26-.24-.26,1.84-.5,3.73-.9,5.53-1.54,4.63-1.63,6.44-6.54,4.04-10.66-.22-.37-.27-1.14-.04-1.43,2.22-2.82,2.63-6.06,2.45-9.5-.13-2.56-.9-4.83-2.48-6.84-2.06-2.63-4.45-4.79-7.72-5.8-.21-.06-.4-.19-.59-.29Z"/>
      <path d="m24.35,100.78c-1.89,2.97-1.99,6.16-1.62,9.41.78,6.86,7.59,12.02,13.97,10.57.69-.16,1.33-.54,1.99-.82.54-.23.99-.38,1.52.18,3.19,3.36,7.03,5.05,11.76,4.55,4.75-.51,8.04-3.01,9.7-7.37.67-1.75.75-3.8.76-5.72.02-12.07-.08-24.13-.09-36.2,0-7.84.08-15.68.09-23.52,0-2.63-.07-5.25-.17-7.88-.02-.63-.24-1.26-.43-1.88-1.96-6.34-2.14-12.65-.16-19.07.7-2.27.68-4.8.75-7.21.09-2.93-.01-5.86-.14-8.79-.1-2.44-2.44-4.61-4.9-4.68-.57-.02-1.14,0-1.71.02-2.36.13-4.15,1.48-4.73,3.75-.26,1.02-.66,1-1.43.6-1.04-.54-2.09-1.13-3.2-1.48-4.09-1.3-8.85.49-11.01,4.15-.57.96-.83,2.09-1.23,3.14l-.35-.08c.23-1.06.29-2.2.72-3.17,2.52-5.79,7.69-8.36,13.87-6.94,1.01.23,1.7.18,2.61-.59,3.85-3.27,11.26-1.74,12.56,3.3.13.51.17,1.05.17,1.58.02,26.23.05,52.46.05,78.68,0,9.52-.02,19.03-.08,28.55-.04,6.61-3.14,11.27-9.22,13.2-5.28,1.67-10.25.84-14.34-3.26-.47-.47-.86-.56-1.5-.35-8.83,2.98-17.5-1.88-19.54-10.96-.21-.95-.32-1.97-.23-2.94.09-.92-.28-1.19-1.04-1.41-3.06-.86-5.97-2.04-8.51-4-8.38-6.48-11.4-17.17-7.59-27.59.94-2.58,2.5-4.93,3.82-7.36.27-.5.59-.87.06-1.39-2.39-2.3-2.62-5.16-1.81-8.12.46-1.7,1.3-3.29,2.02-5.05-2.5-3.43-3.87-7.44-2.84-11.92,1.21-5.26,3.97-9.38,9.36-11.16,1.31-.43,1.11-1.24,1.11-2.21,0-2-.2-4.07.25-5.98,2.02-8.53,10.58-13.36,18.96-10.87,1.31.39,1.47.66,1.14,1.98-1.38-.17-2.75-.39-4.14-.49-5.91-.43-10.6,1.73-13.69,6.84-1.95,3.23-2.32,6.79-1.47,10.46.07.29.11.58.15.78-4.61,1.75-8.69,3.97-9.68,9.27-1.2,6.4,2.3,10.41,7.29,13.51-1.39.91-2.81,1.72-4.09,2.7-2.1,1.6-3.17,3.72-3.03,6.43.07,1.33.3,2.56,1.26,3.57.45.47.49.81.02,1.43-2.16,2.87-3.44,6.15-4.14,9.66-.16.82-.37,1.63-.47,2.46-.86,6.9,2.22,12.06,7.34,16.26,3.66,3,7.89,4.35,12.63,3.99.85-.06,1.69-.33,2.68-.53Z"/>
      <path d="m25.92,47.42c-.99,0-1.83-.85-1.79-1.8.03-.88,1.04-1.87,1.86-1.84.87.04,1.79,1.03,1.77,1.91-.02,1.04-.76,1.74-1.83,1.73Z"/>
      <path d="m41.55,67.27c-1.03-.03-1.88-.85-1.83-1.76.05-.94.94-1.7,1.96-1.66.96.04,1.68.84,1.64,1.81-.04,1.07-.67,1.65-1.76,1.62Z"/>
      <path d="m56.96,101.17c0,.85-.82,1.64-1.7,1.65-.89,0-1.91-.96-1.88-1.78.03-.86.9-1.65,1.83-1.66,1.02-.01,1.75.74,1.74,1.8Z"/>
      <path d="m22.25,82.78c-1.04.01-1.72-.66-1.72-1.67,0-.9.76-1.68,1.63-1.71.96-.03,1.69.7,1.71,1.71.03,1.15-.47,1.66-1.62,1.67Z"/>
      <path d="m30.88,92.4c-.03.94-.75,1.61-1.7,1.56-1-.05-1.6-.7-1.55-1.69.05-.94.77-1.63,1.69-1.61.86.01,1.59.83,1.56,1.74Z"/>
      <path d="m80.9,84.27c.81,0,1.82,1.03,1.84,1.89.01.75-1.1,1.83-1.9,1.85-.84.02-1.88-1.09-1.86-2,.02-.92.92-1.74,1.92-1.74Z"/>
      <path d="m94.45,33.86c0,.92-.84,1.81-1.72,1.79-1.03-.02-1.86-.82-1.85-1.78.01-1,.82-1.79,1.83-1.79.89,0,1.73.86,1.74,1.78Z"/>
      <path d="m111.98,47.12c1.1.01,1.66.6,1.66,1.71,0,1-.74,1.71-1.74,1.68-.97-.03-1.8-.89-1.77-1.84.03-.98.73-1.57,1.85-1.55Z"/>
    </g>
  </g>
</svg>