<?xml version="1.0" encoding="UTF-8"?>
<svg id="Layer_2" data-name="Layer 2" xmlns="http://www.w3.org/2000/svg" viewBox="0 0 134.02 157.36">
  <g id="Layer_1-2" data-name="Layer 1">
    <path d="m133.88,86.11c0,.15,0,.3-.01.44-.08,2.45-.22,4.9-.22,7.35,0,2.87,0,5.73,0,8.6,0,.32,0,.63,0,.95,0,.14,0,.29,0,.43,0,5.29,0,10.59.03,15.88.03,5.87.21,11.74.29,17.62.01,1.07-.19,2.14-.23,3.21-.11,3.16-1.88,5.03-4.77,5.72-3.08.74-6.21,1.25-9.35,1.68-1.63.22-2.43-.72-2.46-2.64-.05-3.61,0-7.22-.05-10.83-.02-1.67-.14-3.34-.32-5-.32-2.88-2.24-4.59-5.13-4.46-1.77.08-3.55.32-5.27.72-4.62,1.07-6.57,3.43-6.67,8.2-.09,4.31.07,8.62.08,12.93.02,5.11-.23,5.38-5.23,6.59-8.15,1.97-16.34,1.77-24.55.44-2.6-.42-5.21-.86-7.75-1.54-3.43-.93-6.69-.45-10,.55-4.89,1.47-9.78,2.97-14.76,4.11-2.03.46-4.31.3-6.39-.07-3.81-.67-5.44-2.62-5.79-6.48-.18-1.98-.04-3.98-.15-5.97-.11-1.98-.31-3.95-.54-5.92-.06-.51-.31-1.04-.6-1.48-1.07-1.63-5.27-2.6-7.97-1.88-1.78.47-2.99,2.16-3.09,4.63-.1,2.8-.03,5.6-.07,8.4-.04,2.91-.55,3.41-3.45,3.22-1.07-.07-2.14-.26-3.17-.54-3.31-.92-4.5-2.23-4.65-5.7-.24-5.33-.27-10.66-.41-16-.38-14.65-.8-29.3-1.15-43.95-.12-5.33-.1-10.67-.08-16.01.02-4.48.74-5.46,5-6.92,10.71-3.67,21.72-6.19,32.85-8.21,2.3-.42,2.26-.36,2.29-2.74.08-5.71.08-11.42.37-17.12.19-3.78,1.68-7.17,4.76-9.55,6.14-4.73,12.36-9.38,18.56-14.03,3.27-2.46,6.56-4.9,9.89-7.27,1.35-.96,2.85-1.73,4.27-2.6,2.04-1.24,4.08-1.13,6.12-.02,7.65,4.18,15.3,8.36,22.95,12.55,6.84,3.75,13.56,7.76,20.57,11.17,4.62,2.25,6.42,5.48,6.38,10.46-.04,5.75-.06,11.51-.07,17.26s0,11.51,0,17.26c0,5.51.08,11.03-.08,16.54Zm-57.67,63.88V11.45c-.7.37-1.17.59-1.63.86-7.47,4.4-14.24,9.71-20.17,16.03-6.12,6.53-9.3,14.1-8.11,23.25.46,3.53,1.25,6.86,4.2,9.11,3.87,2.96,5.5,6.79,5.49,11.6-.05,23.65,0,47.31-.02,70.96,0,1,.36,1.46,1.28,1.7,6.23,1.64,12.46,3.3,18.95,5.03ZM39.6,63.91c0,1.15,0,1.94,0,2.73.01,14.93.01,29.86.04,44.79.02,12.4.1,24.79.09,37.19,0,1.52.57,1.9,1.94,1.59,2.82-.64,5.06-2,6.42-4.68,1.23-2.42,1.73-4.97,1.68-7.64-.12-6.79-.37-13.57-.36-20.36.02-13.9.14-27.8.31-41.7.07-5.33-2.33-8.92-7.14-10.99-.85-.37-1.78-.56-2.99-.92Zm49.1,44.44c.07,2.26.2,4.02,1.68,5.35,1.43,1.28,3.07.88,4.6.47,6.54-1.78,13.04-3.68,19.57-5.51,2.75-.77,5.54-1.37,8.26-2.2,1.89-.58,3.07-3.08,2.67-5.17-.32-1.69-1.13-2.13-3.77-2.06-.22,0-.43,0-.65.02-9.01.81-18.03,1.62-27.04,2.45-2.92.27-4.1,1.27-4.87,4.09-.27.98-.35,2.01-.45,2.56Zm37.52-64c0-2.74-.59-3.6-3.21-4.49-6.01-2.04-12.03-4.03-18.03-6.09-3.81-1.31-7.57-2.77-11.41-4.01-3.26-1.05-5.37.49-5.61,3.9-.05.75-.07,1.51-.04,2.26.12,3.14.99,4.31,4.01,4.95,7.42,1.57,14.86,3.03,22.28,4.58,2.68.56,5.32,1.33,8.01,1.87,2.84.58,4.01-.34,4-2.97Zm-37.51,44.1c-.4,5.45,1.37,6.42,6,6.13,3.22-.21,6.44-.44,9.66-.62,5.86-.33,11.72-.59,17.57-.94,2.27-.14,3.59-1.41,3.68-3.3.12-2.5-1.08-4.16-3.39-4.5-1.65-.24-3.31-.37-4.97-.48-8.16-.52-16.33-1.05-24.49-1.52-1.97-.11-3.85,1.31-4.04,2.96-.1.85-.02,1.72-.02,2.27Zm-.74-34.34c0,3.88.43,4.39,4.25,5.06.32.06.64.12.96.15,9.66.85,19.32,1.71,28.98,2.54,2.94.25,4.68-1.87,3.91-4.71-.58-2.17-1.96-3.31-4.21-3.63-7.14-1.03-14.27-2.14-21.41-3.22-2.77-.42-5.53-.93-8.31-1.2-2.71-.26-4.02,1.02-4.17,3.71-.02.43,0,.86,0,1.29Zm19.5,22.49c3.83.16,7.65.33,11.48.49,2.78.12,7.34-1.18,6.59-5.1-.25-1.32-2.12-2.67-4.09-2.95-.11-.02-.21-.02-.32-.03-6.05-.62-12.11-1.25-18.16-1.85-3.64-.36-7.28-.74-10.94-.99-1.95-.13-3.62.87-3.84,2.51-.33,2.35-.88,5.21,1.53,6.58,1.55.88,3.33.73,5.03.79,2.61.09,5.22.22,7.84.33,1.63.07,3.26.14,4.89.21Zm-86.99,20.48c5.79.74,13.56,1.55,13.17-4.6-.02-.37-.08-.75-.15-1.12-.35-1.85-1.2-2.62-3.07-2.57-4.3.12-8.59.29-12.89.46-2.31.09-4.62.14-6.93.33-.81.07-1.81.26-2.35.78-1.13,1.11-1.51,2.68-.98,4.18,1.13,3.19,5.84,2.19,8.35,2.09,1.11-.05,2.86.2,4.84.45Zm-.36,5.51c-.4.02-.8.04-1.2.04-.12,0-.23,0-.35,0-.3.01-.6.06-.91.06-.86.04-1.73.08-2.59.13-.04,0-.09,0-.13,0-1.24.06-2.47.12-3.71.18-2.11.1-3.67,1.76-3.74,3.98-.05,1.64,1.19,2.69,3.45,2.83,4.03.25,8.07.44,12.11.67,2.26.13,4.52.34,6.77.36.79,0,1.87-.2,2.34-.73,1.53-1.76.99-3.88.44-5.84-.47-1.68-2.02-1.75-3.45-1.77-1.72-.02-3.43-.02-5.15,0-.85,0-1.71.02-2.56.04-.44.01-.89.04-1.33.07Zm-12.72-19.94c7.53-.33,15-.65,22.47-.97,1.45-.06,2.95-.22,3.42-1.86.55-1.93.84-3.99-.71-5.64-.46-.49-1.44-.85-2.1-.74-6.54,1.04-13.06,2.14-19.57,3.32-3.62.66-4.17,1.58-3.5,5.9Zm11.06,33.85c-2.69-.15-5.38-.25-8.08-.27-2.4-.02-3.28,1.18-2.52,3.48.43,1.31,1.33,1.98,2.69,2.22,6.41,1.13,12.82,2.29,19.22,3.47,2.35.43,3.01-1.77,3.15-3.69.09-1.16.13-2.45-.62-3.34-.79-.94-2.15-1.1-3.38-1.18-3.49-.24-6.98-.5-10.47-.69Z"/>
  </g>
</svg>