<?xml version="1.0" encoding="UTF-8"?>
<svg id="Layer_2" data-name="Layer 2" xmlns="http://www.w3.org/2000/svg" viewBox="0 0 112.02 112.77">
  <g id="Layer_1-2" data-name="Layer 1">
    <g>
      <path d="m50.87,50.64c-2.83,0-5.66.02-8.49,0-3.49-.03-6.48,1.33-8.54,3.95-2.28,2.91-5.28,3.54-8.58,3.73-2.04.11-4.08,0-6.12.03-.7.01-1.42.08-2.1.24-1.64.39-2.58,1.52-2.63,3.18-.03.82.03,1.66.18,2.47.48,2.61,1.66,3.6,4.29,3.72,2.24.1,4.52,0,6.72.38,3.95.67,5.58,2.89,5.5,6.86-.05,2.17-1.28,3.53-3.07,4.46-.95.5-2.01.78-3.01,1.2-1.09.46-1.45,1.18-.8,2.15.89,1.34,1.84,2.68,3,3.77,6.02,5.7,13.11,9.43,21.32,10.91,1.43.26,2.89.33,4.34.38,1.15.04,1.99-.53,1.99-1.75,0-3.51.07-7.04-.17-10.53-.15-2.13-1.52-3.14-3.69-3.36-1.12-.12-2.25-.13-3.35-.34-3.12-.59-5.33-3.08-5.3-5.88.03-2.69,2.15-5.23,5.23-5.65,2.79-.38,5.64-.33,8.47-.42,2.16-.07,4.33-.07,6.5-.1,1.27-.02,2.3-.46,2.83-1.66.5-1.13,1.01-2.26,1.37-3.44,1.3-4.3,2.88-5.56,7.38-5.84,1.53-.09,3.1-.11,4.59-.42,2.53-.53,4.57-2,6.22-3.93,2.21-2.59,5.01-3.57,8.33-3.31,1,.08,1.99.18,2.99.19,1.35,0,1.7-.41,1.55-1.76-.09-.82-.23-1.64-.37-2.45-.14-.86-.1-1.59.98-1.79,1.05-.19,1.61.31,1.73,1.28.32,2.58.72,5.16.87,7.76.34,5.84-.26,11.61-2.48,17.06-5.18,12.76-13.99,21.98-27.17,26.71-4.52,1.62-9.24,2.51-14.06,2.58-9.19.13-17.72-2.11-25.33-7.35-11.25-7.75-18.32-18.18-20.02-31.8-1.07-8.58.21-16.87,4.25-24.7,3.32-6.45,7.59-12.03,13.47-16.36,8.87-6.54,18.75-9.67,29.83-8.78,1.49.12,2.99.26,4.48.36,1.15.08,1.35.86,1.26,1.75-.1.96-.79,1.01-1.59.85-.81-.16-1.64-.31-2.46-.37-2.15-.17-3.31.72-3.56,2.86-.16,1.35-.15,2.72-.1,4.08.13,3.86-1.12,5.38-4.99,6.04-1.06.18-2.14.39-3.15.74-1.88.65-2.84,2.3-2.56,4.17.3,2.02,1.62,3.39,3.64,3.45,3.2.1,6.42-.04,9.62.07,1.35.05,2.74.3,4,.76,2.83,1.04,4.67,4.03,4.49,6.95-.19,3.07-2.06,5.46-5.2,6.21-1.92.46-3.92.64-5.89.75-2.2.12-4.41.03-6.62.03,0-.03,0-.06,0-.08Zm6.75,39.73s.05,0,.08,0c0,1.82-.05,3.64.02,5.46.07,1.7,1.62,2.92,3.31,2.67,9.15-1.38,17.35-4.78,24.17-11.14,8.9-8.32,13.53-18.53,13.74-30.7.03-1.67-.22-2.44-2.38-2.66-4.41-.46-8.65-.24-11.65,3.88-1.6,2.19-3.99,3.34-6.76,3.53-1.41.1-2.83.08-4.24.15-2.76.14-4.55,1.73-5.06,4.43-.11.61-.2,1.22-.33,1.83-.55,2.47-1.95,4.19-4.46,4.85-.87.23-1.81.28-2.72.31-3.58.13-7.16.18-10.73.35-1.19.06-2.37.38-3.55.61-1.33.26-1.45,1.29-1.49,2.38-.04,1.18.03,2.33,1.46,2.64,1.54.33,3.1.62,4.66.74,3.38.26,5.76,2.51,5.92,5.86.08,1.61.01,3.22.01,4.84Zm-5.83-42.96v-.31c3.16,0,6.33.06,9.49-.04.86-.02,1.86-.29,2.52-.8,1.57-1.2,1.86-2.89,1.14-4.81-.64-1.7-2.04-1.96-3.63-2.04-3.66-.19-7.31-.4-10.96-.72-3.34-.29-5.85-2.5-6.34-5.4-.61-3.61,1.54-6.81,5.36-7.97,1.03-.32,2.06-.64,3.09-.97,1.46-.46,2.37-1.5,2.49-2.96.14-1.59.07-3.21-.08-4.81-.17-1.86-1-2.45-2.85-2.16-4.91.76-9.76,1.83-14.21,4.07-12.92,6.52-20.84,16.89-23.66,31.04-.24,1.19-.23,2.48-.09,3.69.16,1.35,1.06,2.1,2.37,2.11,3.25.03,6.5.03,9.74-.06,2.18-.05,4.14-.61,5.57-2.52,2.85-3.83,6.88-5.29,11.54-5.34,2.83-.03,5.66,0,8.49,0Zm-29.08,24.08s0,.04,0,.05c-.87,0-1.74-.01-2.61,0-2.14.04-2.74.84-2.06,2.87.2.61.58,1.19.98,1.69,1.48,1.82,3.55,1.92,5.67,1.84,2.9-.11,4.32-2.34,3.24-5.06-.34-.86-.93-1.36-1.86-1.39-1.12-.03-2.24,0-3.36,0Z"/>
      <path d="m102.46,21.64c-.49,7.78-6.57,11.75-12.22,11.68-6.6-.08-11.7-5.21-11.77-11.79-.07-6.2,5.78-11.67,11.93-11.47,6.97.22,11.81,5.57,12.05,11.58Zm-12.69,9.42c5.3.09,9.36-3.92,9.51-9.39.13-4.91-4.22-9.46-9.11-9.53-5.04-.07-9.44,4.27-9.5,9.38-.06,5.25,3.95,9.45,9.1,9.54Z"/>
      <path d="m6.05,73.76c-.64.57-1.02,1.04-1.52,1.32-.7.39-1.28-.01-1.47-.66-.57-1.92-1.06-3.87-1.5-5.82-.06-.29.29-.93.51-.96.42-.05,1.13.09,1.28.38.93,1.8,1.74,3.67,2.7,5.74Z"/>
      <path d="m74.82,107.26c.12-.16.33-.7.7-.86,1.91-.81,3.85-1.54,5.8-2.24.21-.08.78.17.79.29.02.46.05,1.19-.22,1.36-1.84,1.18-3.72,2.33-5.67,3.31-.78.39-1.38-.37-1.39-1.87Z"/>
      <path d="m44.03,111.82c-1.84-.73-3.74-1.42-5.56-2.27-.34-.16-.52-1.02-.47-1.54.07-.82.75-.72,1.35-.54,1.7.52,3.41,1.05,5.11,1.58,1.05.33,1.05,1.23.93,2.03-.04.25-.73.41-1.35.73Z"/>
      <path d="m3.02,51.37c-.14,1.54-.19,2.86-.43,4.15-.08.39-.67.91-1.08.97-.66.1-1.61,0-1.5-.99.22-2.11.58-4.2.95-6.29.05-.27.55-.7.74-.65.33.08.74.42.85.74.26.73.36,1.51.47,2.06Z"/>
      <path d="m20.54,99.46c.79-1.26,1.59-1.69,2.73-.8,1.46,1.14,2.98,2.22,4.4,3.41.31.26.29.91.42,1.39-.46.05-.97.25-1.36.11-2.38-.86-4.29-2.42-6.19-4.11Z"/>
      <path d="m108.72,77.4c-.76,2.81-1.82,4.93-3.49,6.72-.22.23-1.01.29-1.22.09-.34-.32-.7-1.05-.55-1.37.81-1.72,1.66-3.44,2.75-4.98.3-.43,1.45-.28,2.51-.45Z"/>
      <path d="m29.07,10.72c-.58-.78-1.12-1.5-1.81-2.42,2.4-1.06,4.72-2.11,7.08-3.08.21-.09.8.28.91.56.11.29-.02.89-.26,1.06-1.9,1.31-3.85,2.54-5.92,3.88Z"/>
      <path d="m8.88,30.73c-.15.86-.13,1.63-.43,2.26-.67,1.42-1.49,2.77-2.26,4.14-.38.68-.94,1.12-1.74.71-.81-.42-.53-1.12-.25-1.73.68-1.51,1.4-3,2.09-4.5.48-1.03,1.4-.83,2.58-.87Z"/>
      <path d="m91.04,98.06c.2-.49.24-.93.49-1.15,1.4-1.22,2.81-2.43,4.29-3.55.32-.24.92-.13,1.39-.17-.06.5.06,1.13-.21,1.46-1.19,1.49-2.45,2.91-3.75,4.3-.29.31-1.03.66-1.2.53-.45-.35-.7-.95-1.01-1.42Z"/>
      <path d="m8.55,85.68c.27-.33.47-.76.8-.91.24-.11.79.02.95.24,1.3,1.71,2.57,3.44,3.76,5.22.15.23-.04.91-.3,1.13-.31.27-1.09.51-1.27.35-1.79-1.65-2.92-3.75-3.94-6.03Z"/>
      <path d="m64.09,109.77c0,1.27-.32,2.06-1.24,2.26-1.58.34-3.18.56-4.79.73-.73.08-1.45-.17-1.54-1.08-.09-.88.47-1.33,1.24-1.4,2.08-.2,4.18-.33,6.33-.5Z"/>
      <path d="m13.69,20.75c.24-.45.37-.92.67-1.22,1.13-1.16,2.31-2.26,3.48-3.38.66-.62,1.24-.65,1.9.1.69.79.14,1.15-.36,1.61-1.35,1.23-2.66,2.49-4.05,3.68-.24.21-.8.27-1.1.14-.26-.11-.36-.58-.55-.94Z"/>
      <path d="m79.59,32.7c-.09.23-.12.5-.27.68-.9,1.13-1.79,2.26-2.75,3.33-.45.5-1.14.74-1.6.09-.26-.37-.39-1.21-.16-1.47,1.03-1.15,2.16-2.24,3.36-3.21.46-.37,1.22-.37,1.41.57Z"/>
      <path d="m78.85,11.29c-.4-.17-.76-.23-.97-.44-.98-.99-1.94-2-2.83-3.07-.2-.24-.1-.74-.13-1.12.42-.03.98-.24,1.23-.06,1.28.96,2.5,2,3.7,3.06.19.17.32.73.21.84-.33.33-.79.52-1.2.78Z"/>
      <path d="m106.49,36.2c-1.2,1.12-2.16,1-2.97.3-.86-.75-1.63-1.63-2.32-2.54-.22-.3-.08-.87-.11-1.31.46-.02,1.09-.25,1.36-.03,1.36,1.1,2.63,2.31,4.04,3.58Z"/>
      <path d="m104.84,6.94c.15.09.52.22.73.48.1.13-.02.58-.19.74-.98,1-1.96,1.99-3.02,2.9-.24.2-.97.2-1.16,0-.3-.33-.56-.95-.46-1.35.27-1.08,2.77-2.77,4.1-2.77Z"/>
      <path d="m91.64,40.29c-.1.69-.16,1.4-.31,2.08-.05.22-.32.52-.53.55-.22.03-.65-.17-.7-.35-.38-1.33-.74-2.67-.98-4.03-.03-.19.67-.77.88-.7.56.18,1.17.53,1.5.99.23.33.05.96.05,1.45.03,0,.07,0,.1,0Z"/>
      <path d="m90.18,0c1.29,1.69,1.55,3.35,1.38,5.1-.07.73-.63.9-1.16.53-.4-.29-.76-.78-.89-1.25-.4-1.44-.03-2.81.67-4.38Z"/>
      <path d="m52.42,2.69c-1.56.09-3.13.18-4.69.27-.03-.17-.07-.34-.1-.5,1.29-.86,2.6-1.78,4.24-1.7.34.02.64,1,.96,1.54-.14.13-.27.26-.41.4Z"/>
      <path d="m69.65,21.66c1.47-1.69,3.17-.81,4.66-1.13.04,2.02-.85,2.69-2.51,2.02-.65-.26-1.29-.53-2.16-.89Z"/>
      <path d="m106.96,22.62c1.19,0,2.37-.04,3.56.03.29.02.56.38.85.58-.24.24-.44.62-.72.68-1,.24-2.03.51-3.04.46-.36-.02-.67-.92-1-1.42.12-.11.24-.22.35-.33Z"/>
      <path d="m111.16,59.97c.92,1.57,1.16,2.97.42,4.41-.15.3-.55.47-.84.71-.12-.32-.38-.66-.33-.95.19-1.33.47-2.65.75-4.16Z"/>
    </g>
  </g>
</svg>