<?xml version="1.0" encoding="UTF-8"?>
<svg id="Layer_2" data-name="Layer 2" xmlns="http://www.w3.org/2000/svg" viewBox="0 0 153.43 71.66">
  <g id="Layer_1-2" data-name="Layer 1">
    <path d="m123.37,42.57c-.4,0-.8.04-1.19,0-3.83-.44-7.04.98-9.93,3.31-.21.17-.4.36-.62.49-1.38.83-1.89,2.03-2.04,3.64-.21,2.27-1.68,3.81-3.72,4.74-.73.34-.97.73-1.02,1.53-.07,1.06-.3,2.15-.69,3.14-.88,2.25-2.74,3.18-5.06,3.29-.68.03-.93.24-1.08.93-.43,2.1-1.55,3.71-3.57,4.66-2.33,1.1-4.69,1.52-7.17.57-.69-.26-1.16-.11-1.73.43-2.02,1.91-4.57,2.33-7.11,1.6-2.32-.68-4.41-.69-6.59.34-.76.36-1.73.45-2.6.42-2.36-.08-4.03-1.29-4.96-3.45-.28-.65-.56-.8-1.33-.68-3.58.57-7.06.33-9.3-2.97-.9-1.32-1.79-1.67-3.27-1.61-2.68.11-4.44-1.6-6.02-3.46-.65-.77-1.34-1.38-2.28-1.8-1.51-.68-2.15-2.04-2.11-3.61.03-1.2-.34-2.06-1.17-2.94-1.01-1.07-1.76-2.37-2.69-3.52-.36-.44-.83-.84-1.34-1.11-3.34-1.75-7.02-2.43-10.63-3.28-4.6-1.09-9.01-2.65-12.85-5.41-3.83-2.75-6.52-6.52-8.26-10.85C.58,20.76-.45,14.27.18,7.58c.15-1.58.6-3.16,1.14-4.65C2.04.96,3.09.36,5.1.95c2.9.85,5.81,1.76,8.55,3.01,5,2.28,9.85,4.87,14.82,7.23,3.27,1.55,6.56,3.1,9.95,4.32,3.33,1.2,6.89,1.55,10.42,1.38,1.31-.06,2.66-.73,3.88-1.35,2.76-1.4,5.45-2.93,8.17-4.4,2.66-1.44,5.58-2.13,8.54-2.17,2.31-.03,4.5.05,6.77-.81,2.98-1.13,6.08-.39,9.13.29,3.81.85,7.17,2.77,10.74,4.16,1.84.72,3.9,1.31,5.83,1.25,5.47-.18,10.9-.86,16.19-2.39,7.9-2.29,15.75-4.74,23.41-7.74,2.88-1.13,5.74-2.3,8.61-3.45,1.24-.5,1.37-.41,1.81.86,1.51,4.37,1.67,8.88,1.38,13.42-.24,3.75-.87,7.43-2.01,11.01-1.74,5.49-5.26,9.59-10.21,12.44-3.99,2.3-8.24,4.02-12.88,4.46-1.6.15-3.23.02-4.85.02,0,.03,0,.05,0,.08Zm-53.5-30.88c-.03-.15-.07-.29-.1-.44-1.79.11-3.61.06-5.37.35-3.51.58-6.55,2.32-9.49,4.23-2.07,1.34-4.1,2.89-6.67,2.99-3.8.14-7.64.05-11.26-1.17-4.14-1.4-8.21-3.04-12.21-4.79-4.76-2.08-9.42-4.4-14.15-6.57-1.13-.52-2.33-.91-3.54-1.19-1.34-.32-2.29.1-2.88,1.32-.49,1.02-.97,2.14-1.04,3.25-.43,6.18.11,12.25,2.28,18.12,1.26,3.41,3.18,6.15,6.55,7.9,5.62,2.92,11.64,4.69,17.66,6.51,2.05.62,4.12,1.16,6.16,1.78,1.52.46,2.64,1.41,3.32,2.88.5,1.07,1.18,2.05,1.67,3.12.86,1.88,2.13,3.33,3.95,4.38.83.48,1.51.51,2.4.3,1.98-.47,3.98-.84,6-1.13,1.26-.18,2.35.4,3.09,1.42.54.74.91,1.6,1.38,2.44,2.38-1.67,5.03-2.78,8.06-2.48,3.49.34,6.03,2.25,5.19,6.26-.26,1.23-.21,1.24,1.12,1.31,2.3.12,3.74,1.18,4.1,3.13.12.63.08,1.32-.03,1.95-.17.89.16,1.33,1.02,1.42,1.05.11,2.1.21,3.15.25,1.75.06,3.31-.36,4.58-1.67.25-.26.89-.26,1.33-.21,1.29.13,2.59.56,3.87.5,3.14-.15,6.17-2.8,6.34-5.75.01-.21.48-.47.77-.56,1.03-.3,2.2-.32,3.1-.82,2.14-1.19,2.65-3.31,2.6-5.57-.01-.6.03-.93.7-1.16,2.41-.83,3.88-2.6,4.1-5.07.21-2.37-.61-4.48-2.61-6.05-2.68-2.11-5.39-4.2-7.92-6.49-4.24-3.84-8.29-7.89-12.54-11.73-2.69-2.43-5.86-2.58-8.92-.62-1.13.72-2.13,1.65-3.17,2.51-2.24,1.83-4.34,3.86-6.72,5.48-3.27,2.22-6.93,2.25-10.6.98-1.05-.37-1.72-1.36-1.56-2.46.12-.79.32-1.67.79-2.28,3.78-4.97,7.71-9.82,12.48-13.92,1.01-.87,2.03-1.74,3.04-2.61ZM150.35,2.55c-.46.2-.69.31-.94.39-5.35,1.75-10.67,3.57-16.05,5.22-8.43,2.59-16.89,5.07-25.34,7.58-4.39,1.3-8.42.81-12.28-1.91-4.05-2.86-8.66-4.55-13.61-5.26-3.73-.54-7.06.2-10.09,2.61-5.02,3.99-9.64,8.37-13.65,13.37-1.23,1.53-2.38,3.15-3.39,4.83-.78,1.3-.47,2.12.88,2.83,2.2,1.15,4.53,1.11,6.48-.3,2.68-1.94,5.12-4.21,7.67-6.33,1.09-.9,2.12-1.89,3.3-2.65,3.23-2.08,6.5-2.17,9.85-.13,3.36,2.05,5.88,5.05,8.78,7.62,3.91,3.47,7.71,7.06,11.59,10.57,1.21,1.09,2.63,1.85,4.24,2.22,2.64.6,5.1.16,7.39-1.28,1.66-1.05,3.38-1.88,5.42-1.93,1.68-.04,3.35-.2,5.03-.34,8.35-.74,14.98-4.62,19.98-11.19,4.67-6.14,6.3-13.19,5.58-20.8-.16-1.68-.54-3.34-.84-5.11ZM57.19,61.42c-.08-.57-.1-.84-.15-1.12-.21-1.05-.33-2.14-.66-3.15-.56-1.72-2.28-3.1-3.74-2.8-2.47.51-4.9,1.24-7.33,1.93-.77.22-.86.71-.3,1.32,1.97,2.16,4.14,3.89,7.33,3.52.59-.07.81.17.89.75.16,1.22.8,2.17,1.9,2.71,1.11.55,2.24,1.22,3.43,1.43,2.06.37,4.18.48,6.27.58.74.04,1.02.14,1.08.94.14,1.84,1.44,2.96,3.31,3.13,1.73.15,3.23-.51,4.7-1.25.25-.12.44-.57.47-.88.2-2.36-.87-3.75-3.25-4.07-1.05-.14-2.13-.02-3.13-.02.4-1.46.85-2.86,1.14-4.29.45-2.23-.64-3.81-2.86-4.23-.67-.13-1.38-.17-2.06-.11-2.61.21-4.91,1.05-6.26,3.5-.31.56-.46,1.2-.78,2.1Z"/>
  </g>
</svg>