<?xml version="1.0" encoding="UTF-8"?>
<svg id="Layer_2" data-name="Layer 2" xmlns="http://www.w3.org/2000/svg" viewBox="0 0 46.66 63.72">
  <g id="Layer_1-2" data-name="Layer 1">
    <g>
      <path d="m22.64,63.58c-3.78.08-7.57.14-11.33.14C5.43,63.83.19,59.17,0,52.57c-.32-11.45,7.58-21,18.88-23.23,8.93-1.76,16.71.7,22.68,7.74,3.19,3.76,4.8,8.26,5.08,13.16.3,5.16-2.67,10.01-7.4,12.09-1.23.54-2.65.88-3.99.91-4.18.12-8.39.24-12.61.34ZM2.52,52.09c-.06,2.27.53,4.34,2.02,6.06,2.25,2.59,5.13,3.9,8.6,3.96,7.17.12,14.34.29,21.51.41,4.5.08,9.15-4.41,9.16-8.88.01-5.23-1.8-9.82-5.27-13.73-3.86-4.34-8.57-6.95-14.57-7.16-3.78-.13-7.42.17-10.72,2.09-6.63,3.86-10.39,9.52-10.73,17.24Z"/>
      <path d="m34.15,12.51c-.05,4.7-1.4,8.38-5.03,11.02-6.04,4.4-13.02,1.92-16.39-2.19-3.72-4.55-4.66-10.42-.99-15.76C14.08,2.19,17.49.24,21.47.02c5.76-.32,11.82,4.22,12.45,10.2.09.9.18,1.79.23,2.29Zm-10.84,9.11c.89,0,1.78-.02,2.63-.24.16-.04.31-.08.47-.13,1.02-.32,1.98-.82,2.89-1.37.15-.09.3-.19.45-.28,4.5-2.9,4.64-9.19,1.96-12.67-2.44-3.16-5.6-4.55-9.63-4.42-5.72.19-11.06,6.02-8.7,12.99.27.79.7,1.52,1.22,2.18.57.72,1.25,1.35,1.99,1.9s1.62,1.04,2.51,1.38c.53.2,1.07.37,1.62.48s1.13.16,1.71.17c.29,0,.58.01.88.02Z"/>
    </g>
  </g>
</svg>