<?xml version="1.0" encoding="UTF-8"?>
<svg id="Layer_2" data-name="Layer 2" xmlns="http://www.w3.org/2000/svg" viewBox="0 0 146.08 140.59">
  <g id="Layer_1-2" data-name="Layer 1">
    <g>
      <path d="m80.92,102.59c.04,6.54-.84,12.94-3.46,19-1.8,4.17-4.57,7.61-8.34,10.2-3.13,2.15-5.73,1.7-7.75-1.5-2.22-3.51-4.29-7.11-6.38-10.7-7.45-12.78-14.9-25.57-22.33-38.36-2.72-4.69-5.43-9.39-8.09-14.11-.5-.88-.78-1.89-1.1-2.85-.66-2,0-3.67,1.52-4.99,1.76-1.52,3.89-2.23,6.18-2.48,8.25-.93,15.96,1.01,23.47,4.22,2.86,1.22,5.85,2.19,8.82,3.13,2.41.76,4.86.29,7.03-.75,4.46-2.13,8.81-4.49,13.17-6.81,1.31-.69,1.59-1.92,1.18-3.29-.41-1.4-1.14-2.67-2.77-2.58-1.58.09-3.19.4-4.68.93-1.98.69-3.8,1.84-5.78,2.51-4.18,1.43-7.52.19-9.79-3.63-1.8-3.02-3.4-6.15-5.13-9.21-2.87-5.05-5.77-10.09-8.65-15.13-.6-1.06-1.23-2.12-1.73-3.22-1.63-3.59-.99-5.94,2.42-7.92,6.18-3.59,12.39-7.14,18.67-10.55,2.87-1.56,5.88-2.92,8.95-4.04,2.92-1.06,5.13-.24,6.67,2.42,5.32,9.16,10.62,18.34,15.72,27.63,2.32,4.22,1.73,5.88-2.22,8.75-1.7,1.24-3.54,2.29-5.27,3.48-2.64,1.81-3.01,4.08-1.76,6.93,1.01,2.29,3.24,2.8,5.38,1.48,3.15-1.95,6.49-3.6,10.2-3.96,9.16-.88,16.53,6.45,16.43,16-.05,4.95-2.29,8.67-6.12,11.59-1.25.95-2.58,1.79-3.81,2.76-.92.72-1.79,1.52-2.58,2.38-1.09,1.19-1.32,2.6-.65,4.08.69,1.52,1.82,2.54,3.55,2.71,2.42.25,4.68-.21,6.73-1.58,1.67-1.12,3.35-2.21,5.07-3.25,1.28-.78,2.46-.5,3.42.6.57.66,1.13,1.36,1.57,2.11,4.45,7.64,8.89,15.28,13.29,22.94,1.26,2.2,2.54,4.41,3.55,6.73,1.17,2.69.48,4.65-1.91,6.37-.71.51-1.48.97-2.24,1.4-7.45,4.23-14.9,8.48-22.37,12.67-3.01,1.69-4.85,1.37-6.8-1.54-2.06-3.08-3.81-6.36-5.68-9.57-3.13-5.35-6.24-10.72-9.36-16.08-.56-.97-1.14-1.94-1.64-2.94-1.11-2.22-1.05-3.62.89-5.24,2.31-1.93,4.84-3.63,7.4-5.24,2.56-1.61,3.58-3.33,3.19-6.17-.44-3.15-3.78-5.06-6.61-3.59-3.39,1.75-6.69,3.68-9.98,5.63-2.23,1.32-4.36,2.82-6.56,4.19-2.24,1.39-3.14,3.38-2.94,5.95.06.82.01,1.66.01,2.49Zm-2.88.54c-.31-3.17-.3-5.75-.85-8.19-1.8-7.95-6.19-14.61-11.25-20.81-3.21-3.94-7.3-6.95-12.03-8.97-4.76-2.03-9.74-3.34-14.87-3.93-2.46-.28-4.99-.44-7.45-.24-2.46.2-3.58,2.06-2.93,4.42.39,1.39.98,2.76,1.67,4.04,2.39,4.42,4.85,8.81,7.3,13.2,6.87,12.32,13.72,24.65,20.63,36.95,1.36,2.42,2.89,4.77,4.51,7.02,1.49,2.07,3.56,2.36,5.14.65,3.55-3.85,7.11-7.84,8.4-13.05.94-3.81,1.24-7.77,1.73-11.09Zm-10.31-33.19c.41.44.63.7.86.94,3.88,4,7.13,8.43,9.26,13.61.54,1.31,1.09,2.62,1.78,3.85,1.53,2.72,3.55,3.21,6.26,1.61,2.24-1.31,4.46-2.66,6.73-3.91.8-.44,1.07-.96,1.05-1.85-.03-1.75-.25-3.59.2-5.24.83-3.03,1.95-6.01,3.2-8.9,1.47-3.4,2.75-6.78,2.43-10.56-.02-.24-.03-.49-.05-.73-.55-4.89-3.96-6.59-8.12-4.01-5.82,3.62-11.61,7.29-17.39,10.97-2.06,1.31-4.05,2.73-6.23,4.22Zm27.78-18.21c.12.18.15.3.22.33.68.28,1.36.54,2.04.83,3.54,1.5,5.07,4.43,4.13,8.15-.53,2.07-1.33,4.08-1.84,6.15-1.04,4.26-.24,8.14,2.83,11.39.4.42,1.42.81,1.8.59,3.29-1.83,6.6-3.66,9.69-5.79,2.79-1.91,4.65-4.57,4.87-8.13.39-6.16-2.52-10.74-7.3-14.15-3.09-2.21-6.74-2.9-10.5-1.66-1.99.65-3.91,1.49-5.95,2.28Zm-36.76-12.91c.09.28.19.86.44,1.37,1.27,2.56,3.4,3.19,6.45,1.72,3.3-1.59,6.61-3.2,9.77-5.04,4.98-2.91,9.87-5.97,14.73-9.07,1.98-1.27,2.21-2.69,1.12-4.63-1.11-1.98-1.96-2.23-4.39-1.27-.14.05-.28.1-.41.16-8.42,4.15-16.84,8.29-25.26,12.44-1.66.82-2.41,2.21-2.46,4.32Zm-4.97-9.69c.03,2.44.7,3.72,2.08,4.09,1.89.5,3.71.48,5.55-.45,7.47-3.79,14.89-7.64,21.84-12.33.93-.63,1.86-1.29,2.63-2.09,1.07-1.1,1.05-2.5.43-3.81-.64-1.35-1.82-1.88-3.3-1.53-.99.24-2.03.45-2.93.89-3.78,1.84-7.53,3.75-11.28,5.64-4.41,2.22-8.81,4.45-13.22,6.67-1.34.68-1.89,1.77-1.8,2.92Zm53.16,90.77c-.05,3.74,2.58,5.59,5.9,4.34,1.05-.4,2.14-.78,3.09-1.35,5.95-3.59,11.88-7.21,17.79-10.87,1.16-.72,2.24-1.59,3.27-2.49,1.32-1.15,1.51-3.26.54-4.82-.81-1.3-2.19-1.64-4.02-.77-2.12,1-4.18,2.15-6.26,3.24-5.94,3.12-11.87,6.25-17.81,9.37-1.47.77-2.68,1.69-2.5,3.35ZM48.85,20.54c0,3.65,2.55,5.32,5.9,3.93,8.44-3.52,16.27-8.16,23.94-13.08,1.01-.65,1.93-1.54,2.62-2.52,1.36-1.91.29-3.99-2.04-3.96-1.35.02-2.77.23-4.02.71-8.76,3.37-16.87,8.03-25.04,12.58-.97.54-1.63,1.27-1.37,2.34Zm56.95,94.31c1.07-.43,2.2-.75,3.21-1.3,6.36-3.46,12.69-6.97,19.03-10.46,1.76-.97,3.53-1.91,5.26-2.91,1.17-.68,1.51-1.66,1.04-2.99-1.05-2.99-2.88-3.98-5.92-3.04-.7.21-1.39.49-2.03.84-5.23,2.87-10.5,5.68-15.64,8.7-2.57,1.5-4.94,3.34-7.32,5.13-1.12.84-1.67,2.05-1.11,3.5.59,1.52,1.78,2.32,3.48,2.54Zm23.23-25.23c-.05-3.52-2-4.87-5.24-3.79-.32.11-.65.21-.96.36-8.16,4.05-16.17,8.37-23.33,14.06-.49.39-.94.88-1.26,1.41-.66,1.08-.14,3.07,1.04,4.25.96.96,1.89.39,2.81-.07,4.81-2.41,9.65-4.76,14.41-7.26,3.59-1.89,7.1-3.94,10.6-5.99,1.14-.67,2.24-1.51,1.93-2.98Zm-60.97-38.69c.12-.02.37-.03.6-.1.61-.19,1.23-.35,1.8-.61,6.95-3.21,13.67-6.83,19.86-11.36,1.78-1.3,3.64-2.49,5.37-3.84.97-.76,1.17-1.84.62-3.04-.54-1.18-1.54-1.55-2.65-1.38-1.09.17-2.18.56-3.19,1.02-8.1,3.69-15.54,8.75-24.09,11.53-1.8.58-2.95,2.69-2.61,4.14.55,2.3,2.13,3.69,4.28,3.65Zm74.91,64.5c-.25-1.96-.73-2.72-2.31-2.82-.87-.05-1.84.23-2.63.63-5.21,2.59-10.39,5.25-15.58,7.89-2.7,1.38-5.44,2.69-8.08,4.18-2.32,1.31-3.06,3.83-1.92,5.87,1.07,1.91,3.22,2.45,5.64,1.16,3.88-2.07,7.78-4.13,11.49-6.48,4.12-2.63,8.06-5.55,12.01-8.42.62-.45.93-1.33,1.39-2Z"/>
      <path d="m33.52,140.59c-2.65-.8-5.38-1.4-7.93-2.45-6.96-2.86-12.47-7.62-17.14-13.44C3.15,118.11.19,110.58,0,102.24c-.1-4.67,1-9.37,1.63-14.05.18-1.31,1.36-1.28,2.32-1.17,1.2.14,1.41.98,1.21,2.06-1.13,6.13-1.36,12.32-1.02,18.52.57,10.28,5.43,18.11,14,23.78,4.63,3.06,9.44,5.77,14.58,7.89.39.16.73.44,1.1.67-.1.22-.2.43-.3.65Z"/>
      <path d="m18,92.82c-.37,2.07-.77,3.79-.98,5.52-1.02,8.64,1.57,15.96,8.22,21.73,3.07,2.66,6.52,4.64,10.51,5.64.42.11.71.71,1.07,1.09-.49.16-1.08.57-1.45.43-5.46-2.13-10.78-4.52-14.58-9.23-5.19-6.42-8.3-13.57-7.26-21.99.17-1.36.99-2.7,1.77-3.89.26-.4,1.33-.49,1.97-.37.36.06.59.83.75,1.07Z"/>
      <path d="m39.37,114.88c-1-.32-2.07-.51-2.98-1-4.92-2.65-9.75-8.79-9-15.62.11-1,.63-1.99,1.12-2.9.15-.28.9-.44,1.29-.33.28.08.55.69.56,1.08.03,1.12-.04,2.24-.13,3.36-.45,5.87,1.91,10.2,7.08,13.07.85.47,1.59,1.15,2.37,1.74-.11.2-.22.4-.32.61Z"/>
    </g>
  </g>
</svg>