<?xml version="1.0" encoding="UTF-8"?>
<svg id="Layer_2" data-name="Layer 2" xmlns="http://www.w3.org/2000/svg" viewBox="0 0 81.42 93.23">
  <g id="Layer_1-2" data-name="Layer 1">
    <g>
      <path d="m.02,46.53C.02,39.32.04,32.11,0,24.89c0-1.19.28-1.89,1.43-2.53,7.35-4.13,14.62-8.39,21.92-12.6C28.94,6.54,34.54,3.32,40.15.14c.28-.16.8-.19,1.07-.04,6.44,3.67,12.86,7.38,19.28,11.07,6.61,3.8,13.22,7.61,19.84,11.39.76.43,1.07.96,1.07,1.84-.01,14.85,0,29.71.01,44.56,0,.57-.06,1.04-.67,1.39-7.32,4.19-14.61,8.42-21.92,12.62-5.84,3.36-11.69,6.69-17.52,10.06-.48.28-.8.24-1.25-.03-7.38-4.26-14.77-8.52-22.17-12.76-5.73-3.29-11.49-6.54-17.2-9.87-.37-.22-.6-.97-.61-1.48-.06-5.08-.06-10.17-.07-15.25,0-2.37,0-4.75,0-7.12h0Zm80.66-16.11c.08-.31.17-.48.17-.65-.05-1.91-.07-3.81-.19-5.72-.02-.34-.38-.77-.7-.95-6.94-4.04-13.89-8.05-20.85-12.06-5.65-3.25-11.32-6.45-16.93-9.76-1.17-.69-2.03-.57-3.11.07-6.23,3.66-12.48,7.28-18.74,10.89-6.26,3.61-12.53,7.2-18.8,10.78-.52.3-.83.63-.82,1.3.03,6.32.03,12.63.02,18.95-.01,6.99-.04,13.99-.08,20.98,0,.91.25,1.61,1.06,2.1,1.4.84,2.71,1.85,4.17,2.57,6.18,3.05,12.5,3.66,18.81.46,5.9-3,9.92-7.82,12.43-13.83,1.43-3.42,2.38-7.05,3.63-10.55,1.18-3.33,2.18-6.77,3.76-9.91,4.85-9.63,12.97-12.96,23.21-11,4.83.92,9.11,3.07,12.97,6.33Zm-8.21,13.79c.28-3.7-2.36-7.62-7.42-7.69-4.27-.06-7.59,3.29-7.61,7.53-.02,4.46,3.24,7.74,7.61,7.83,4.14.09,7.65-3.26,7.42-7.67Z"/>
      <path d="m25.92,49.02c.04,4.34-3.02,8.04-8.12,8.19-3.79.11-8.19-2.97-8.28-8.13-.08-4.6,3.46-8.07,8.16-8.1,4.83-.03,8.21,3.27,8.25,8.05Z"/>
    </g>
  </g>
</svg>