<?xml version="1.0" encoding="UTF-8"?>
<svg id="Layer_2" data-name="Layer 2" xmlns="http://www.w3.org/2000/svg" viewBox="0 0 133.89 141.62">
  <g id="Layer_1-2" data-name="Layer 1">
    <path d="m122.04,141.62c-37.83,0-75.66.01-113.49-.04-1.86,0-3.78-.34-5.56-.88-2.38-.72-3.17-2.46-2.96-5.56.15-2.2,1.12-3.37,3.41-3.95,1.04-.26,2.1-.44,3.17-.58,3.1-.4,4.23-1.75,4.12-4.88-.12-3.43-.26-6.85-.24-10.28.03-7.52.18-15.05.21-22.57.02-3.91-1.34-5.23-5.29-5.22-1.79,0-3.25-.41-3.98-2.19-.86-2.08-.88-4.11.67-5.9.32-.37.96-.61,1.47-.66,1.58-.14,3.17-.17,4.75-.22,3.94-.12,6.2-1.69,7.36-5.48.76-2.48,1.21-5.06,1.82-7.59,1.76-7.24,5.39-13.43,11.23-18.04,4.2-3.31,8.74-6.22,13.33-8.98,3.74-2.25,6.28-5.12,7.6-9.36,1.55-4.97,5.11-8.14,10.15-9.58.88-.25,1.78-.51,2.59-.91,1.6-.79,2.46-2.13,2.42-3.95-.05-2.66-.18-5.32-.23-7.98-.08-4.26,2.22-6.76,6.49-6.82,3.01-.04,6.04.14,9.05.35,2.03.14,3.19,1.54,3.14,3.59-.05,2.3-.04,4.61-.27,6.89-.26,2.53-.76,2.87-3.34,2.98-1.94.09-3.88.17-5.82.33-2.2.18-3.48,2.55-2.39,4.48.21.37.78.58,1.22.77,1.54.68,3.2,1.14,4.6,2.03,1,.64,1.92,1.7,2.42,2.79,2.74,5.93,7.05,10.47,12.14,14.4,4.09,3.16,8.16,6.34,12.05,9.74,7.37,6.44,11.9,14.56,13.82,24.18.86,4.31,3.85,6.36,8.21,6.16,1.37-.06,2.78-.13,4.12.09,2.14.36,3.05,1.45,3.32,3.47.24,1.78-.67,3.7-2.4,4.39-1.45.57-3.03.88-4.58,1.11-2.89.43-3.99,1.36-4.23,4.29-.2,2.5-.16,5.01-.16,7.52,0,7.93.03,15.86.07,23.8,0,1.23.07,2.46.24,3.67.33,2.35,1.52,3.37,3.9,3.52,1.17.07,2.35.13,3.52.28,2.66.34,4.05,2.21,4.19,5.53.1,2.45-1.21,4.29-3.73,4.61-2.68.34-5.4.29-8.11.41,0,.07,0,.14,0,.22Zm-39.9-63.26s0,.07,0,.1c8.03.12,16.07.31,24.1.32,1.84,0,3.76-.42,5.52-1,2.25-.75,3.31-2.89,2.93-5.24-.98-6.06-3.83-11.35-7.31-16.22-12.98-18.2-35.39-24.39-55.95-18.67-6.19,1.72-11.64,4.91-16.8,8.68-2.02,1.48-2.86,3.27-2.67,5.77.23,3.1,1.38,5.68,3.77,7.59,2.27,1.82,4.63,3.55,7.07,5.14,4.5,2.93,8.25,6.6,10.92,11.23,1.07,1.86,2.34,2.34,4.3,2.32,8.04-.08,16.07-.03,24.11-.03Zm-20.35,30.78c-.09,0-.18,0-.27,0,0-2.3-.03-4.61,0-6.91.05-3.22.18-6.45.23-9.67.03-1.74-.74-3.26-2.34-3.81-1.84-.63-3.89-1.19-5.79-1.05-5.44.4-7.01,2.36-6.87,7.8.01.46.05.92.05,1.38.04,4.35.08,8.7.09,13.05.01,5.17-.04,10.34,0,15.51.03,3,1.25,4.55,4.21,5.16,1.58.33,3.25.39,4.86.28,4.01-.28,5.82-2.35,5.82-6.39,0-5.12,0-10.23,0-15.35Zm-38.9,5.48c-.14,0-.27,0-.41,0,0,2.4-.02,4.81,0,7.21.02,1.94-.04,3.9.18,5.82.21,1.84,1.54,2.88,3.37,2.92,1.79.04,3.58.06,5.37-.03,1.75-.08,3.24-.8,3.82-2.57.4-1.24.68-2.57.69-3.87.02-4.45-.22-8.9-.14-13.34.09-5.27.55-10.53.57-15.79.01-3.92-1.32-6.46-4.72-7.04-1.2-.21-2.44-.32-3.66-.3-3.98.07-5.58,1.66-5.52,5.67.1,7.11.3,14.21.45,21.32Zm62.82-20.19c.4-2.07.51-4.3-1.42-5.59-2.83-1.88-5.98-1.74-8.93-.31-2.4,1.16-2.65,3.54-2.61,5.94.06,3.32.13,6.64.09,9.96-.08,6.95-.28,13.9-.34,20.85-.03,3.54,1.76,5.36,5.31,5.61,1.02.07,2.05.11,3.06.03,3.52-.27,5.27-2.17,5.19-5.69-.06-2.81-.31-5.61-.33-8.42-.05-7.46-.02-14.92-.02-22.38Zm24.94,14.63s0,0,0,0c0-5.27.06-10.53-.02-15.8-.06-3.91-1.13-5.21-4.99-5.62-5.69-.62-8.3,1.41-7.99,6.73.1,1.73.32,3.47.32,5.2.04,7.46.02,14.92.01,22.38,0,1.73-.08,3.47,0,5.2.11,2.15,1.42,3.36,3.55,3.4,1.69.03,3.37,0,5.06,0,2.07-.01,3.3-.94,3.65-2.96.25-1.5.37-3.04.38-4.57.05-4.65.02-9.31.02-13.96Zm-40.71,28.87c16.99,0,33.99,0,50.98,0,1.79,0,3.58.03,5.37-.03,1.11-.04,2.04-.45,2.04-1.79,0-1.56-.87-2.5-2.28-2.47-1.28.03-2.55.2-3.83.22-9.67.13-19.34.31-29,.35-14.33.06-28.66.08-42.99.02-13.61-.05-27.22-.22-40.83-.34-1.75-.01-2.34.65-2.34,2.61,0,1.61.18,1.77,2.25,1.72,3.53-.08,7.06-.28,10.58-.29,16.69-.03,33.37-.01,50.06-.01Zm-2.77-53.11s0-.01,0-.02c3.53,0,7.06-.02,10.59,0,15.09.08,30.19.18,45.28.27,1.18,0,2.36.03,3.53-.1.96-.1,2.04-.29,1.95-1.66-.08-1.29-.6-1.96-2.12-1.95-11.21.06-22.41.07-33.62.02-18.32-.07-36.63-.22-54.95-.27-4.81-.01-9.61.26-14.42.26-5.16,0-10.33-.17-15.49-.26-1.19-.02-2.07.24-2.13,1.76-.05,1.49.67,2.04,1.98,2.14.61.05,1.23.07,1.84.07,6.91-.08,13.81-.22,20.72-.24,12.28-.04,24.56-.01,36.84-.01ZM28.52,52.06c-.62.84-1.01,1.35-1.39,1.87-3.41,4.66-6.08,9.7-7.54,15.3-1.47,5.65.16,8.29,5.49,9.34.3.06.61.1.91.1,4.75-.01,9.5-.03,14.26-.05,1.07,0,1.54-.55,1.59-1.62.28-6.24-1.33-11.66-6.75-15.37-3.33-2.28-5.9-5.04-6.57-9.58Zm39.06-30.84c-.03.13-.07.26-.1.38-1.22.07-2.45.1-3.67.23-3.89.42-7.16,2.07-9.57,5.17-1.05,1.36-2.49,2.77-1.29,4.79.89,1.49,2.54,1.78,5.26,1.23,5.61-1.13,11.23-1.37,16.89-.24,1.23.24,2.53.21,3.8.14,1.31-.07,1.86-.84,1.64-2.19-.57-3.6-2.44-6.38-5.76-7.76-2.25-.94-4.79-1.19-7.19-1.75Zm27.11,79.53s.03,0,.04,0c0-3.27.06-6.55-.05-9.82-.02-.7-.47-1.68-1.03-2.03-2.22-1.39-4.77-.03-4.85,2.6-.08,2.91.1,5.83.11,8.74.04,5.83.08,11.66.06,17.49,0,2.81-.19,5.62-.18,8.43,0,.83.3,1.72.66,2.48.7,1.47,2.06,1.24,3.34,1.05,1.23-.18,1.5-1.01,1.51-2.1.11-8.95.24-17.9.37-26.85Zm-81.04,8.91s.01,0,.02,0c0,5.37,0,10.74,0,16.11,0,.71-.08,1.52.22,2.12.37.75,1,1.75,1.68,1.9,1.06.23,2.27-.13,3.39-.34.18-.03.36-.6.38-.92.09-2.66.22-5.31.2-7.97-.05-6.03-.21-12.06-.27-18.1-.04-3.78.04-7.57.02-11.35,0-1.44-.55-2.41-2.25-2.48-1.83-.08-2.46.18-2.92,1.92-.28,1.08-.45,2.21-.46,3.32-.05,5.26-.02,10.53-.02,15.8Zm55.5.14s-.07,0-.1,0c.08-1.33.21-2.65.23-3.98.07-4.86.14-9.71.12-14.57,0-1.79-.64-2.34-2.26-2.48-1.55-.14-2.28.4-2.69,2.06-.13.54-.18,1.11-.18,1.67,0,11.1.02,22.2.04,33.3,0,.82.06,1.63.14,2.45.1,1.01.72,1.51,1.7,1.67,2.1.33,2.98-.33,2.99-2.46.03-5.88.01-11.76.01-17.64Zm44.81,1.12c0,5.11-.03,10.23.03,15.34,0,.89.22,1.85.62,2.64.66,1.28,1.97,1.16,3.12.9.45-.1,1.1-.72,1.11-1.13.15-4.49.23-8.99.26-13.48.03-4.85,0-9.71-.03-14.56-.03-3.42-.08-6.83-.21-10.24-.05-1.22-.84-1.7-2.1-1.66-2.17.08-2.78.62-2.78,2.87,0,6.44,0,12.88,0,19.32Zm-70.03-1.52c0-6.03-.02-12.07.02-18.1,0-1.31-.37-2.2-1.77-2.4-1.5-.22-2.53.42-2.83,1.88-.18.89-.23,1.83-.22,2.74.05,4.19.22,8.38.2,12.57-.03,6.54-.24,13.09-.26,19.63-.01,3.02.1,2.96,3.13,3.24,1.36.13,1.78-.23,1.77-1.62-.07-5.98-.03-11.96-.03-17.94ZM74.04,10.81s0,.06,0,.08c.87,0,1.75.11,2.6-.03.92-.15,2.41-.34,2.58-.85.44-1.37.52-2.96.33-4.4-.16-1.25-1.32-1.96-2.6-1.98-2.14-.03-4.29-.07-6.41.18-1.83.22-2.74,1.87-2.59,4.07.13,1.91.99,2.78,3.02,2.92,1.02.07,2.04.01,3.06.01Z"/>
  </g>
</svg>