<?xml version="1.0" encoding="UTF-8"?>
<svg id="Layer_2" data-name="Layer 2" xmlns="http://www.w3.org/2000/svg" viewBox="0 0 116.22 135.79">
  <g id="Layer_1-2" data-name="Layer 1">
    <path d="m114.83,73.46c-.64,1.96-1.2,3.95-1.94,5.87-.98,2.53-1.92,5.09-3.18,7.48-2.89,5.49-6.58,10.4-11.15,14.64-1.8,1.66-3.62,3.3-5.34,5.03-1.6,1.61-2.93,3.45-3.8,5.57-2.08,5.11.8,9.89,6.28,10.56,5.61.69,10.37-1.22,14.69-4.59,1.07-.83,2.03-1.79,3.05-2.69.05.04.1.09.15.13-.68.72-1.31,1.52-2.06,2.16-2.81,2.38-5.54,4.89-8.54,7.02-4.87,3.47-10.3,5.88-15.96,7.82-4.26,1.46-8.64,2.29-13.09,2.69-3.99.36-8.01.66-12.01.64-6.87-.03-13.74-.47-20.49-1.84-7.5-1.52-14.71-3.92-21.25-8.02-3.03-1.9-5.69-4.24-8.02-6.97-2.35-2.75-2.32-5.78-1.09-8.94,1.1-2.83,2.91-5.2,4.99-7.38.11-.11.27-.18.44-.29-1.11-1.27-2.14-2.43-3.15-3.61-4.72-5.53-8.38-11.7-10.52-18.64-1.09-3.53-1.62-7.24-2.24-10.89-.68-4.03-.77-8.11-.2-12.15.86-6.07,1.78-12.15,4.5-17.76.2-.41.37-.84.54-1.26.15-.38.29-.77.57-1.11-1.53,4.33-3.13,8.63-3.82,13.2-.69,4.61-.69,9.24-.49,13.86.2,4.63.95,9.17,2.65,13.61,1-.55,1.87-1.07,2.77-1.53,4.95-2.55,10.24-4.09,15.7-5,5.33-.89,10.72-1.5,16.05-2.41,5.8-.99,11.62-1.99,17.23-3.85,7.66-2.53,14.5-6.53,20.64-11.74,6.44-5.46,11.58-11.99,15.94-19.17,2.58-4.27,4.82-8.7,6.63-13.35.3-.78.18-1.27-.41-1.83-4.34-4.16-9.14-7.67-14.54-10.36-8.87-4.41-18.25-6.36-28.11-6-6.45.24-12.66,1.76-18.71,3.98-.73.27-.9.49-.67,1.37,1.7,6.42.72,12.49-4.82,17.41-4.19,3.72-9.22,5.67-14.72,6.47-2.64.38-5.27.76-7.92,1.05-1.05.11-1.67.6-2.07,1.52-.19.46-.44.9-.83,1.26.23-.51.44-1.04.7-1.53,3.93-7.41,8.99-13.93,15.38-19.37,4.96-4.23,10.42-7.65,16.49-10.15,4.77-1.96,9.68-3.25,14.77-3.92,4.48-.59,8.97-.56,13.46-.04,6.66.77,12.95,2.74,18.8,5.97,11.24,6.21,19.66,15.11,24.86,26.91,1.79,4.06,3.38,8.22,4.08,12.63.47,2.94.74,5.92.99,8.89.17,1.98.21,3.98.2,5.97,0,1.43-.21,2.87-.44,4.29.58-4.4.17-8.75-.42-13.3-.38.32-.61.53-.86.72-5.58,4.4-11.1,8.88-17.08,12.75-8.58,5.55-17.79,9.58-27.8,11.69-4.25.9-8.57,1.25-12.9,1.5-6.51.38-12.95-.38-19.42-1.02-6.44-.63-12.88-.48-19.11,1.54-3.67,1.19-6.97,3.1-9.75,5.84-.62.6-.73,1.11-.3,1.89,2.8,5.15,6.21,9.84,10.43,13.91,7.87,7.58,17.01,12.8,27.8,15.06,5.12,1.07,10.27,1.58,15.48,1.41,3.91-.12,7.73-.91,11.53-1.84,6.71-1.64,12.74-4.69,18.37-8.62,2.82-1.97,5.26-4.34,7.71-6.72,2.43-2.36,4.63-4.91,6.5-7.7,2.19-3.27,4.31-6.62,5.6-10.4.96-2.82,2.1-5.57,3.16-8.36.04,0,.08.02.12.03Zm-36.32,44.71c-.01.08-.03.15-.04.23-2.65.02-5.27.25-7.83.95-2.28.62-4.38,1.57-6.11,3.28-1.55,1.53-1.42,4.71-.07,6.05.95.94,2.02,1.63,3.3,1.93,5.05,1.19,9.9.57,14.46-1.87,1.85-.99,3.39-2.39,4.25-4.39,1.01-2.36.26-4.4-2.2-5.15-1.85-.57-3.84-.7-5.76-1.02Z"/>
  </g>
</svg>