<?xml version="1.0" encoding="UTF-8"?>
<svg id="Layer_2" data-name="Layer 2" xmlns="http://www.w3.org/2000/svg" viewBox="0 0 80.59 81.61">
  <g id="Layer_1-2" data-name="Layer 1">
    <g>
      <path d="m73.17,28.51c.65,3.28,1.9,6.35,1.52,9.64-.12.03-.23.07-.35.1-.13-.26-.33-.5-.39-.78-.34-1.43-.61-2.88-.96-4.32-1.37-5.6-3.94-10.6-7.81-14.9-5.16-5.73-11.6-9.25-19.2-10.54-5.35-.91-10.65-.35-15.79,1.4-11.67,3.99-18.74,12.17-21.32,24.01-1.66,7.61-.76,15.06,2.57,22.25,2.36,5.1,5.89,9.1,10.2,12.57,3.16,2.55,6.57,4.67,10.33,6.24,3,1.25,6.16,1.87,9.39,2.03,3.35.16,6.71.19,10.07.24.53,0,1.06-.17,1.49-.24-.16.55-.3,1.15-.53,1.7-.07.19-.35.32-.56.42-.31.15-.65.26-1.12.44.24.12.35.16.45.22.23.13.46.26.7.4-.23.17-.43.43-.68.51-8.27,2.54-16.47,2.22-24.48-.97-5.37-2.14-10.06-5.38-14.13-9.49-5.26-5.31-8.95-11.56-10.99-18.71-2.23-7.79-2.09-15.61.59-23.25C7.39,12.53,18.2,3.86,33.66.75c7.98-1.6,15.75-.6,23.17,2.63,6.33,2.76,11.35,7.19,15.64,12.55,6.37,7.96,8.73,17.03,7.99,27.01-.56,7.54-2.92,14.48-7.24,20.74-3.21,4.66-7.31,8.37-12.24,11.17-.62.35-1.32.57-1.98.85-.09-.09-.19-.19-.28-.28.23-.45.38-.98.71-1.34.48-.52,1.05-.98,1.65-1.35,4.09-2.53,7.29-5.95,10.06-9.82,2.72-3.8,4.8-7.9,6.03-12.41.27-1,.32-2.05.48-3.08-.12-.03-.24-.06-.36-.08-.08.19-.17.38-.23.58-1.68,5.12-3.89,10-7.08,14.37-1.04,1.42-2.37,2.64-3.63,3.89-.49.48-1.17.71-2.09.43.25-.38.42-.74.69-1,4.51-4.35,7.42-9.69,9.41-15.51.76-2.22.93-4.65,1.25-7,.43-3.2.14-6.38-.34-9.56-.28-1.84-1.11-3.92-2.1-5.02ZM52.65,7.43c-.05.11-.1.23-.15.34.51.32,1.01.68,1.55.95,2.02,1.05,4.15,1.92,6.06,3.14,3.11,1.98,6,4.27,8,7.46.82,1.3,1.66,2.58,2.52,3.85.25.37.6.68.91,1.01.09-.06.18-.13.27-.19-.33-.82-.54-1.72-1.02-2.45-1.09-1.64-2.27-3.22-3.47-4.77-3.38-4.37-7.88-7.15-13-9.04-.52-.19-1.11-.2-1.66-.3Z"/>
      <path d="m37.8,40.1c0-.77-.01-1.53,0-2.3.03-1.28.6-1.95,1.88-2.05,1.09-.08,2.2-.08,3.3,0,1.35.1,1.88.71,1.91,2.09.03,1.59.04,3.17,0,4.76-.02.59.17.78.73.76.71-.02,1.43,0,2.15.04.76.04,1.4.34,1.72,1.07.31.72.15,1.38-.38,1.97-2.02,2.24-4,4.51-6.04,6.74-1.22,1.33-2.25,1.3-3.48-.05-1.9-2.09-3.77-4.21-5.64-6.32-.16-.18-.32-.38-.45-.59-.79-1.28-.18-2.61,1.32-2.78.76-.09,1.54-.08,2.31-.04.52.02.7-.18.69-.66-.01-.88,0-1.75,0-2.63Z"/>
      <path d="m41.27,60.49c-3.85,0-7.71,0-11.56,0-.36,0-.72,0-1.06-.09-.94-.21-1.51-.91-1.49-1.8.02-.87.64-1.57,1.58-1.72.51-.08,1.04-.13,1.56-.13,7.54,0,15.08-.01,22.63,0,.44,0,.89.04,1.31.14.81.2,1.23.82,1.25,1.71.02.96-.31,1.47-1.19,1.72-.42.12-.86.17-1.3.17-3.91.01-7.82,0-11.73,0Z"/>
      <path d="m41.21,32.42c-.19,0-.38,0-.57,0-.42,0-.83.03-1.24,0-.8-.05-1.38-.46-1.49-1.26-.1-.75-.13-1.52-.07-2.28.07-.81.67-1.41,1.52-1.46,1.34-.08,2.69-.04,4.03-.05.05,0,.11.02.16.03,1.06.27,1.49,1.3,1.34,3.24-.06.75-.45,1.39-1.17,1.65-.45.16-1.02.13-1.5.13-.34,0-.68,0-1.02,0Z"/>
    </g>
  </g>
</svg>