<?xml version="1.0" encoding="UTF-8"?>
<svg id="Layer_2" data-name="Layer 2" xmlns="http://www.w3.org/2000/svg" viewBox="0 0 180.87 62.47">
  <g id="Layer_1-2" data-name="Layer 1">
    <path d="m0,42.09c5.06-.62,9.6-2.02,13.85-4.31,6.59-3.55,12.21-8.29,17.27-13.77,4.05-4.39,8.13-8.79,12.49-12.87,4.52-4.23,9.77-7.49,15.84-9.15,6.3-1.73,12.66-2.52,19.25-1.62,7.12.98,13.83,3.21,20.46,5.77,6.45,2.49,13,4.37,19.99,4.31,3.36-.03,6.57-.75,9.8-1.68,1.82-.53,3.87-.69,5.77-.49,3.46.37,4.74,3.14,3.28,6.72-1.52,3.73-4.14,6.53-7.53,8.71-5.33,3.41-11.24,4.22-17.28,3.42-4.79-.63-9.47-2.09-14.22-3.12-4.14-.9-8.28-1.83-12.45-2.52-1.5-.25-3.12.08-4.66.31-.93.14-1.41.96-1.2,1.89.26,1.11.53,2.28,1.1,3.25,2.48,4.16,6.26,6.78,10.65,8.64,7.14,3.02,14.45,3.01,21.91,1.41,11.79-2.52,22.42-7.72,32.73-13.72,5.35-3.11,10.76-6.11,16.23-9.01,3.68-1.95,7.63-3.25,11.78-3.94,1.78-.3,3.4,0,4.9.93,1.09.67,1.22,2.67.25,4.02-1.55,2.16-3.51,3.87-5.78,5.23-7.95,4.73-15.36,10.23-22.43,16.16-3.76,3.15-7.3,6.55-11.04,9.71-5.27,4.45-11.19,7.91-17.49,10.71-5.38,2.39-11.11,3.6-16.89,4.67-9.24,1.72-18.17.12-27-2.26-5.25-1.42-10.33-3.43-15.51-5.08-6.66-2.12-13.43-4.01-20.38-4.71-4.6-.46-9.32-.13-13.95.24-8.05.65-15.89.08-23.42-2.99-2.44-.99-4.58-2.47-6.3-4.86Zm103.81-2.75c-1.27,0-2.27,0-3.27,0-8.39.07-15.07-3.39-20.12-9.94-1.52-1.98-2.74-4.24-3.79-6.51-.73-1.59.06-3,1.76-3.49,1.41-.41,2.95-.73,4.39-.62,6.46.49,12.65,2.34,18.86,4.06,3.32.92,6.54,2.25,9.91,2.89,6.41,1.22,12.59.37,18.27-3.09,1.67-1.02,3.03-2.3,3.39-4.25.52-2.81.18-4.32-1.38-5.43-1.21-.87-2.55-.88-3.95-.67-4.26.65-8.61,1.08-12.8.14-5.58-1.25-11.12-2.82-16.52-4.7-6.95-2.43-13.83-4.92-21.24-5.71-4.73-.51-9.37-.46-14.04.32-6.81,1.14-12.35,4.68-17.07,9.44-5.04,5.07-9.76,10.44-14.68,15.62-4.81,5.05-10.07,9.54-16.41,12.64-2.03.99-2.19,2.32-.41,3.76,1.93,1.57,4.12,2.43,6.65,2.45,5.5.05,10.99.17,16.49.22,4.43.04,8.84.29,13.13,1.43,6.9,1.84,13.78,3.79,20.64,5.78,7.45,2.17,14.73,4.92,22.56,5.72,7.35.75,14.65.76,21.84-.92,9.4-2.2,17.39-7.23,24.79-13.17,4.5-3.6,8.67-7.62,13.06-11.36,5.89-5.01,12.16-9.51,18.69-13.69,2.04-1.31,3.61-3.37,5.32-5.16.76-.79.44-1.62-.51-1.98-.91-.35-1.97-.76-2.86-.58-3.21.63-6.58,1.04-9.51,2.36-5.09,2.3-9.99,5.08-14.81,7.92-8.09,4.77-16.16,9.53-25.07,12.73-7,2.52-14.12,4.14-21.33,3.78Z"/>
  </g>
</svg>