<?xml version="1.0" encoding="UTF-8"?>
<svg id="Layer_2" data-name="Layer 2" xmlns="http://www.w3.org/2000/svg" viewBox="0 0 114.12 81.33">
  <g id="Layer_1-2" data-name="Layer 1">
    <path d="m72.1,25.44c.56.67,1.1,1.36,1.69,2,2.5,2.71,4.77,5.59,6.66,8.75.75,1.26,1.38,2.63,1.53,4.11.08.82-.08,1.66-.17,2.49-.19,1.79-.42,3.58-.61,5.37-.48,4.53-1.47,8.94-3.26,13.14-.9,2.11-2.08,4.04-3.88,5.5-.6.49-1.29.89-2,1.2-1.14.49-2.09.02-2.46-1.17-.31-1-.44-2.03-.31-3.07.44-3.48.95-6.96,1.35-10.45.25-2.16.5-4.32.39-6.51-.1-2.03-1.02-3.62-2.57-4.87-2.01-1.63-4.04-3.23-6.04-4.86-.15-.12-.26-.34-.29-.54-.16-1.05-.3-2.1-.44-3.15-.07-.54-.11-1.09-.24-1.63-.02.4-.08.81-.05,1.21.27,3.85.61,7.69.82,11.55.17,3.1.25,6.21-.06,9.3-.15,1.52-.41,3.02-.56,4.54-.16,1.69-.27,3.38-.38,5.08-.17,2.57-.27,5.14-.49,7.7-.2,2.32-.87,4.53-1.92,6.6-.74,1.44-1.9,2.48-3.32,3.22-1.4.73-2.46.4-3.28-.95-.74-1.23-1.1-2.6-1.23-4-.2-2.16-.38-4.34-.38-6.51,0-2.46.21-4.93.33-7.39.06-1.23.12-2.46.19-3.69.22-3.85-.48-7.6-1.3-11.34-.76-3.48-1.58-6.95-2.59-10.37-.64-2.16-1.24-4.33-1.87-6.48-.38-1.31-.79-2.61-1.19-3.91-.06-.21-.17-.41-.25-.61-.04.01-.09.02-.13.03.07.29.13.58.21.87.86,3.06,1.73,6.11,2.57,9.18.33,1.19.57,2.4.87,3.59.11.44.02.83-.16,1.23-.7,1.52-1.43,3.02-2.06,4.56-.72,1.76-1.36,3.56-2.01,5.35-.57,1.59-.37,3.12.46,4.56.82,1.41,1.72,2.77,2.57,4.16,1.4,2.32,2.77,4.65,3.32,7.35.51,2.53.49,5.06-.23,7.55-.18.61-.36,1.22-.61,1.8-.3.72-.87.94-1.59.64-.98-.4-1.8-1.06-2.55-1.8-2.49-2.43-4.54-5.22-6.48-8.09-2.4-3.54-4.57-7.2-6.42-11.06-.82-1.72-1.38-3.5-1.22-5.4.15-1.7.37-3.41.75-5.07.5-2.22,1.15-4.41,1.81-6.59.78-2.58,1.64-5.14,2.47-7.71.46-1.44.94-2.87,1.39-4.31.08-.24.08-.51.11-.76-.03,0-.07-.02-.1-.02-.03.07-.06.15-.09.22-.37,1.01-.75,2.01-1.11,3.02-1.2,3.41-2.39,6.82-3.58,10.23-.12.35-.25.7-.34,1.06-.08.31-.26.39-.55.37-1.34-.09-2.67-.19-4.01-.26-2.38-.13-4.77-.3-7.15-.34-3.02-.05-5.78.88-8.33,2.51-1.37.88-2.75,1.77-4.19,2.51-1.87.97-3.9,1.33-6.01,1.25-.25,0-.5-.06-.74-.14-.63-.19-.9-.62-.64-1.22.37-.85.75-1.72,1.29-2.45,2.17-2.88,4.51-5.59,7.37-7.83,1.5-1.17,3.24-1.78,5.05-2.22,2.03-.5,4.07-.99,6.09-1.52.7-.19,1.37-.5,2.05-.76,2.27-.86,3.79-2.57,5.08-4.53,1.64-2.48,2.79-5.2,4.09-7.85.93-1.89,1.85-3.79,2.92-5.6,1.69-2.85,4.17-4.91,7.01-6.56,4.22-2.46,8.75-4.09,13.5-5.14,2.26-.5,4.54-.69,6.84-.37,2.11.29,3.98,1.17,5.66,2.46,1.89,1.45,3.31,3.32,4.66,5.25,1.17,1.69,2.31,3.4,3.49,5.08,1.27,1.8,2.76,3.4,4.56,4.68,2.06,1.46,3.69,3.31,5.02,5.43,1.4,2.23,2.79,4.48,4.07,6.79,1.52,2.74,3.56,4.84,6.46,6.1,3.17,1.38,6.32,2.83,9.72,3.55,2.23.48,4.5.74,6.74,1.11.6.1,1.19.25,1.77.43.58.18.74.53.38,1.03-.62.87-1.29,1.72-2.02,2.5-1.59,1.71-3.63,2.68-5.86,3.27-2.84.74-5.72.96-8.64.65-5.13-.55-9.84-2.19-13.99-5.3-.95-.71-.97-.7-.86-1.86.13-1.3-.19-2.48-.73-3.65-1-2.17-2.28-4.16-3.81-5.99-1.06-1.27-2.14-2.54-3.26-3.75-.82-.89-1.74-1.71-2.61-2.55-.02.02-.04.04-.06.06Z"/>
  </g>
</svg>