<?xml version="1.0" encoding="UTF-8"?>
<svg id="Layer_2" data-name="Layer 2" xmlns="http://www.w3.org/2000/svg" viewBox="0 0 43.36 68.82">
  <g id="Layer_1-2" data-name="Layer 1">
    <path d="m43.1,39.64c-1.14-2.35-2.26-4.69-3.43-7.02-2.38-4.79-4.78-9.56-7.17-14.34-.4-.81-.79-1.64-1.2-2.48l-2.5-4.84h0C26.87,7.28,24.69,3.68,22.77,0c-.09.02.09-.02,0,0v2.46c-.01,3.63-.04,7.26-.02,10.88.02,3.39.08,6.79.13,10.17.05,3.33.13,6.65.17,9.98.01.58.19.87.84,1.03,2.77.66,4.23,2.47,4.19,5.05-.04,2.25-1.85,4.44-4.1,4.97-2.54.59-5.11-.44-6.3-2.54-1.83-3.23-.31-6.9,3.36-8.05.57-.18.78-.42.76-1-.07-2.15-.13-4.3-.1-6.46.03-2.48.17-4.95.23-7.42.07-2.98.09-5.96.15-8.94.06-2.84.15-5.68.22-8.72-.27.4-.46.64-.61.89-1.92,3.36-3.86,6.7-5.75,10.06-3.28,5.86-6.53,11.73-9.78,17.61-2.01,3.65-4,7.31-6.01,10.96-.23.42-.23.66.24.94,1.94,1.13,3.62,2.55,5.16,4.14,2.43,2.5,4.13,5.39,4.88,8.74.04.2-.11.53-.29.66-.53.37-1.1.69-1.69.98-.44.23-.57.54-.57,1.01.03,2.04.02,4.09.02,6.13,0,.3.01.61.02.92.01.42.17.63.66.74.79.18,1.55.48,2.31.77.2.07.39.24.5.41,1.08,1.69,2.66,2.48,4.72,2.46,4.66-.06,9.32-.09,13.98-.17,1.59-.03,2.8-.8,3.42-2.2.41-.93.98-1.64,1.9-2.1.47-.24.59-.59.57-1.07-.08-1.69-.15-3.39-.18-5.08-.02-1.6.01-1.61-1.52-2.16-.39-.14-.56-.32-.5-.71.16-1.07.2-2.18.49-3.22,1.3-4.67,4.44-8.09,8.38-10.92.81-.59.87-.66.44-1.54Zm-.68,1.14c-2.55,1.55-4.88,3.34-6.72,5.65-2.26,2.85-3.78,5.98-3.8,9.64,0,1.09,0,1.14,1.04,1.5.67.24.95.56.88,1.27-.1,1.1-.11,2.21-.11,3.32,0,.43-.16.68-.56.87-.92.42-1.59,1.05-1.75,2.08-.12.73-.71.91-1.36.92-1.89.02-3.78.03-5.66,0-2.59-.05-5.18-.13-7.77-.24-.51-.02-1.02-.17-1.5-.34-.53-.18-.85-.52-.77-1.15.02-.18-.26-.48-.48-.58-.67-.31-1.37-.58-2.07-.83-.41-.16-.59-.4-.57-.84.03-.78.02-1.57.01-2.35-.01-1.02.57-1.66,1.66-1.73.72-.05,1.45,0,2.18-.02,3-.04,6-.08,9-.14.51-.02,1.05-.09,1.53-.25.77-.27,1.18-.95,1.11-1.69-.06-.71-.55-1.31-1.39-1.4-1.51-.17-3.03-.25-4.55-.3-2.09-.07-4.18-.09-6.27-.1-.42,0-.63-.16-.73-.53-1.34-5.17-4.43-9.22-8.71-12.51-.79-.61-.8-.62-.35-1.47,3.21-6.14,6.44-12.26,9.65-18.4,1.77-3.4,3.5-6.82,5.24-10.23.13-.25.27-.48.4-.72.06.02.12.04.17.06.11,4.82.23,9.64.33,14.47.05,2.5.05,5,.11,7.5.01.5-.15.73-.65.96-2.73,1.25-4.24,3.4-4.24,6.25s1.56,4.79,4.14,5.96c3.25,1.48,7.1.31,9-2.61,1.95-3.01,1.27-6.86-1.64-9.16-.35-.28-.71-.57-1.12-.73-.57-.23-.68-.6-.67-1.13.09-5.43.16-10.87.23-16.3.02-1.4,0-2.81.14-4.28.49.76,1.02,1.51,1.47,2.29,2.99,5.12,5.94,10.26,8.94,15.37,2.16,3.67,4.35,7.32,6.55,10.97.32.53.05.72-.35.97Z"/>
  </g>
</svg>