<?xml version="1.0" encoding="UTF-8"?>
<svg id="Layer_2" data-name="Layer 2" xmlns="http://www.w3.org/2000/svg" viewBox="0 0 96.6 95.45">
  <g id="Layer_1-2" data-name="Layer 1">
    <g>
      <path d="m63.59,74.05c-2.44,1.29-4.74,2.79-7.26,3.79-17.91,7.12-37.35,1.94-48.81-14.2C2.89,57.1.24,49.82.02,41.87c-.25-8.72,2.2-16.77,7.3-23.98C13.73,8.83,22.49,3.27,33.2.91c7.77-1.71,15.51-.99,23.01,1.9,12.66,4.88,20.86,13.92,24.62,26.79,2.35,8.05,1.63,16.13-1.81,23.82-1.2,2.67-2.75,5.2-4.25,7.72-.48.8-.49,1.31.12,1.97,4.45,4.81,8.85,9.66,13.31,14.45,1.93,2.08,4,4.03,5.96,6.08,2.03,2.12,3.15,4.48,1.98,7.5-1.66,4.25-6.93,5.7-10.39,2.69-3.35-2.9-6.58-5.94-9.88-8.89-4.09-3.66-8.2-7.3-12.26-10.92Zm6.72-11.51c.19-.33.32-.6.48-.85,7.44-11.97,8.32-24.43,2.84-37.37C67.05,8.76,50.41-.49,34.32,2.72,21.68,5.25,12.54,12.15,7.56,24.03c-5.69,13.57-3.81,26.3,5.39,37.76,6.49,8.09,15.19,12.39,25.47,13.3,8.11.72,15.62-1.42,22.54-5.63,1.05-.64,2.07-1.34,3.12-2.01,6.87,7.66,13.67,15.24,20.48,22.82.83.93,1.66,1.89,2.61,2.68,1.38,1.16,2.93,1.87,4.81,1.11,2.03-.82,3.25-2.22,3.65-4.38.43-2.34-.52-4.13-2.16-5.66-6.17-5.77-12.34-11.53-18.52-17.28-1.52-1.41-3.08-2.79-4.65-4.2Z"/>
      <path d="m70.21,41.52c.45,10.95-7.35,22.61-18.84,26.83-8.97,3.29-17.48,2.57-25.42-2.61-6.02-3.93-9.89-9.57-11.79-16.53-2.24-8.19-1.84-16.27,1.77-23.91,3.89-8.24,10.24-13.84,19.52-15.39,7.6-1.27,14.52.72,20.75,5.12,7.85,5.53,12.29,13.18,13.92,22.54.05.26.09.52.1.79.01,1.06,0,2.12,0,3.18Zm-56.58-2.92c0,4.62.69,8.1,1.91,10.51,2.92,5.74,7.35,9.92,13.25,12.54,4.14,1.84,8.46,2.93,13,2.79,4.43-.14,8.59-1.5,12.4-3.72,9.46-5.52,14.39-16.07,12.53-27.19-1.47-8.81-6.62-14.98-15.04-17.76-10.13-3.34-19.72-1.54-28.27,4.88-6.32,4.75-9.99,10.97-9.77,17.96Z"/>
    </g>
  </g>
</svg>