<?xml version="1.0" encoding="UTF-8"?>
<svg id="Layer_2" data-name="Layer 2" xmlns="http://www.w3.org/2000/svg" viewBox="0 0 138.7 156.2">
  <g id="Layer_1-2" data-name="Layer 1">
    <g>
      <path d="m64.53,10.06c-1.47.84-2.85,1.64-4.26,2.4-.18.1-.48-.04-.72-.07.1-.25.13-.6.31-.72,1.37-.86,2.78-1.66,4.23-2.52-.6-1.2-.8-2.56-.58-3.99C63.95,2.27,66.79-.08,69.75,0c3.18.09,5.87,2.45,6.06,5.48.07,1.12-.27,2.27-.39,3.41-.03.23.04.48.09.71.04.22.22.49.15.64-.06.14-.4.14-.61.21-.33.11-.73.15-.97.36-2.79,2.49-6.47,2.37-9.07-.32-.17-.18-.36-.34-.47-.45Z"/>
      <path d="m6.77,106.19c0,.57.02,1.14,0,1.7-.03.47.08.68.62.76,4.28.69,6.54,5.63,4.32,9.38-1.25,2.11-4.01,3.4-6.33,2.97-2.8-.52-4.78-2.42-5.26-5.04-.63-3.45,1.43-6.57,4.87-7.3.63-.13.79-.38.77-.98-.04-1.13,0-2.27-.02-3.41,0-.4.07-.78.49-.73.21.02.49.45.52.72.08.63.02,1.28.02,1.92h0Z"/>
      <path d="m69.67,86.87c-.12-.07-.16-.08-.16-.09-.23-1.18-1.19-1.38-2.14-1.75-2.83-1.08-4.34-3.81-3.95-6.8.09-.72.52-1.47.01-2.22-.03-.04.25-.43.36-.42.67.08.95-.43,1.32-.8,2.45-2.47,5.68-2.68,8.39-.51.5.4.94.86,1.45,1.34.5-.29,1.01-.64,1.56-.89.2-.09.6-.04.73.1.22.26.17.56-.23.76-.52.26-1.23.49-1.45.93-.21.4.14,1.07.22,1.63.48,3.28-1.38,6.21-4.54,7.1-.6.17-1.13.3-1.2,1.05-.02.19-.22.36-.36.56Z"/>
      <path d="m127.36,118.54c-1.07-1.63-1.38-3.31-1.01-5.11.59-2.92,3.45-5.13,6.36-4.91,3.35.26,5.81,2.71,5.97,5.86.14,2.63-.86,4.64-3.16,5.9-2.34,1.27-4.67,1.05-6.84-.47-.54-.38-.95-.46-1.52-.1-.77.49-1.57.93-2.4,1.31-.23.11-.59-.06-.9-.1.16-.24.27-.58.5-.72.95-.57,1.93-1.08,2.99-1.66Z"/>
      <path d="m127.32,45.5c1.17-.85.56-2.06.83-3.09.25-.97-.15-1.4-.93-1.76-.33-.15-.68-.34-.93-.59-.14-.14-.17-.48-.11-.68.03-.1.44-.19.6-.12.53.25,1.05.55,1.54.88.39.26.65.28,1-.09,1.35-1.44,3.01-1.7,4.81-1.06,1.51.54,2.73,2.38,2.74,3.99.01,1.78-1.07,3.45-2.85,4.1-.82.3-1.08.64-.93,1.52.13.81,0,1.67,0,2.51,0,.38-.17.67-.57.56-.2-.06-.47-.35-.48-.56-.06-.98-.07-1.97-.03-2.96.02-.5-.15-.69-.61-.9-.77-.35-1.5-.81-2.19-1.31-.37-.27-.63-.62-1.13-.26-.12.08-.36-.02-.55-.03-.07-.05-.13-.1-.2-.16Z"/>
      <path d="m69.05,146.18c.06-.43-.28-1.2.55-1.21.85-.02.61.78.56,1.25-.08.86.19,1.28,1.05,1.61,2.26.89,3.35,3.27,2.6,5.35-.82,2.24-3.16,3.49-5.41,2.87-1.68-.46-3.11-2.25-3.22-4.03-.11-1.78.93-3.43,2.63-4.17.09-.04.18-.07.27-.11q1.02-.39.97-1.56Z"/>
      <path d="m6.5,38.67c2.66,0,4.75,2.4,4.3,5.04-.14.82.03,1.3.8,1.6.41.16.8.4,1.14.67.13.11.21.46.12.61-.08.13-.43.24-.59.17-.54-.24-1.06-.53-1.56-.84-.43-.27-.7-.21-1.08.14-1.28,1.17-2.75,1.71-4.48,1.11-1.66-.57-2.66-1.72-3.03-3.43-.54-2.49,1.68-5.07,4.37-5.07Z"/>
      <path d="m69.16,91.91h1.03c0,.48,0,.96,0,1.44,0,1.11.03,2.22-.03,3.33-.01.22-.34.43-.52.64-.16-.2-.46-.4-.46-.6-.04-1.57-.02-3.14-.02-4.8Z"/>
      <path d="m70.19,105.21c0,.71.04,1.43-.02,2.14-.02.2-.31.37-.48.56-.18-.18-.5-.34-.51-.53-.08-1.45-.09-2.9-.15-4.34-.02-.49.28-.6.64-.59.38,0,.54.23.52.63-.03.71,0,1.43,0,2.14Z"/>
      <path d="m131.97,101.98c0-.69-.04-1.38.02-2.06.02-.22.3-.41.45-.62.22.18.62.36.63.55.03,1.5,0,3-.06,4.49,0,.13-.37.37-.51.34-.19-.05-.46-.31-.47-.49-.05-.73-.02-1.47-.02-2.21-.01,0-.03,0-.04,0Z"/>
      <path d="m70.18,126.44c0,.69.04,1.38-.02,2.07-.02.21-.3.39-.46.59-.2-.19-.58-.37-.58-.56-.03-1.43-.01-2.85.05-4.28,0-.22.3-.44.46-.66.19.23.51.45.53.7.07.71.03,1.43.03,2.14,0,0,0,0,0,0Z"/>
      <path d="m70.18,115.89c0,.71.03,1.43-.02,2.14-.01.18-.32.49-.43.47-.22-.05-.58-.28-.58-.45-.04-1.5-.03-2.99.01-4.49,0-.19.3-.37.47-.55.18.2.51.39.52.6.06.76.03,1.52.03,2.28,0,0,0,0,0,0Z"/>
      <path d="m70.19,137.05c0,.64,0,1.28,0,1.92,0,.38-.06.69-.55.68-.42-.01-.53-.26-.53-.63,0-1.33-.06-2.66-.02-3.99,0-.26.33-.5.5-.76.2.26.53.5.56.78.08.65.03,1.33.03,1.99Z"/>
      <path d="m133.05,91.54c0,.66.03,1.33-.02,1.99-.01.19-.27.49-.42.5-.19,0-.53-.25-.54-.4-.06-1.5-.07-3-.06-4.5,0-.14.4-.42.49-.38.24.12.58.36.6.58.07.73.03,1.47.03,2.21-.03,0-.05,0-.08,0Z"/>
      <path d="m133.03,80.9c0,.64.05,1.28-.02,1.91-.03.23-.32.43-.49.65-.16-.2-.45-.4-.46-.61-.06-1.42-.07-2.85-.05-4.27,0-.16.35-.47.49-.45.22.04.54.3.56.48.06.76.03,1.52.03,2.28-.02,0-.04,0-.05,0Z"/>
      <path d="m133.08,70.22c0,.69,0,1.38,0,2.06,0,.35-.08.71-.52.59-.23-.06-.54-.37-.54-.57-.04-1.4-.02-2.8.03-4.2,0-.22.28-.43.44-.65.19.21.51.41.53.64.07.71.03,1.42.03,2.13.01,0,.03,0,.04,0Z"/>
      <path d="m133.02,62.22h-1.02c0-.65,0-1.27,0-1.9.02-.98.03-1.97.1-2.95.01-.18.23-.36.36-.53.19.18.54.36.54.55.04,1.59.03,3.19.03,4.83Z"/>
      <path d="m17.73,48.93c.27.11.49.17.68.27,1.14.64,2.27,1.29,3.41,1.93.34.19.65.39.37.86-.3.51-.61.23-.93.05-1.17-.68-2.35-1.35-3.5-2.08-.19-.12-.28-.46-.34-.71-.02-.08.19-.22.3-.33Z"/>
      <path d="m91.27,67.24c-.13-.12-.39-.24-.42-.4-.03-.19.09-.5.24-.61.5-.36,1.04-.65,1.57-.96.74-.43,1.47-.89,2.24-1.28.16-.08.52.03.65.17.09.1.03.53-.1.61-1.29.81-2.6,1.58-3.91,2.36-.06.04-.14.05-.28.11Z"/>
      <path d="m113.5,53.09c.67.65.66.81-.05,1.24-1.1.66-2.19,1.32-3.31,1.92-.23.13-.6,0-.91,0,.13-.27.18-.67.39-.8,1.26-.81,2.56-1.56,3.88-2.35Z"/>
      <path d="m35.96,59.52c.45.19.91.34,1.33.57.98.51,1.93,1.08,2.91,1.59.43.23.59.49.33.94-.28.5-.59.17-.87.02-1.14-.64-2.24-1.33-3.39-1.94-.53-.28-.57-.6-.32-1.17Z"/>
      <path d="m121.17,37.14c-.21-.09-.35-.14-.48-.21-1.14-.67-2.28-1.35-3.42-2.03-.31-.18-.66-.42-.35-.79.11-.14.57-.14.78-.03,1.22.63,2.42,1.3,3.61,2,.18.11.35.42.34.62-.02.17-.32.31-.48.44Z"/>
      <path d="m32.41,130.67c.2.08.34.12.47.19,1.2.67,2.39,1.35,3.58,2.03.36.21.54.51.28.92-.26.42-.54.16-.81,0-1.18-.7-2.37-1.39-3.53-2.12-.18-.11-.31-.4-.34-.63-.02-.11.23-.26.35-.39Z"/>
      <path d="m18.18,123.52c-.26-.13-.33-.16-.39-.2-1.24-.74-2.49-1.47-3.73-2.23-.29-.18-.65-.44-.27-.8.15-.14.58-.14.78-.03,1.1.6,2.17,1.24,3.24,1.89.23.14.52.32.58.53.06.23-.12.52-.21.83Z"/>
      <path d="m6.76,53.1c0,.67.05,1.34-.02,2-.03.29-.3.55-.47.82-.17-.26-.47-.51-.48-.77-.05-1.38-.03-2.76,0-4.14,0-.21.24-.4.37-.61.2.21.54.41.57.64.08.68.03,1.38.03,2.07,0,0,0,0,0,0Z"/>
      <path d="m6.4,71.55c.74,1.76.18,3.63.39,5.4-.81.25-1.08,0-1.06-.71.04-1.28.01-2.56.05-3.83,0-.3.17-.6.26-.9.12.01.24.03.35.04Z"/>
      <path d="m5.77,84.93c0-.67-.04-1.34.02-2,.02-.24.25-.47.39-.7.17.21.47.4.49.63.08.81.08,1.62.09,2.44.01.59.04,1.19-.03,1.77-.02.22-.3.41-.46.61-.18-.2-.49-.39-.51-.6-.06-.71-.02-1.43-.02-2.15,0,0,.02,0,.03,0Z"/>
      <path d="m45.96,20.74s-.16.08-.31.17c-1.25.74-2.5,1.49-3.77,2.2-.17.09-.46-.05-.7-.09.06-.24.05-.6.2-.69,1.23-.77,2.48-1.52,3.75-2.23.37-.21.85.08.83.64Z"/>
      <path d="m80.46,12.57c.3.13.54.21.75.33,1.1.64,2.21,1.28,3.28,1.97.2.13.24.49.35.75-.26.03-.58.18-.77.08-1.27-.69-2.52-1.42-3.75-2.18-.15-.09-.23-.4-.22-.6,0-.13.24-.25.36-.36Z"/>
      <path d="m6.77,63.98c0,.62.04,1.23-.02,1.84-.02.23-.22.57-.4.62-.37.11-.58-.15-.58-.55.01-1.43,0-2.85.05-4.28,0-.21.24-.41.37-.62.17.18.45.36.48.56.09.8.11,1.61.15,2.42-.01,0-.03,0-.04,0Z"/>
      <path d="m59.21,72.61c-.28.56-.4.97-.9.71-1.32-.7-2.64-1.43-3.92-2.19-.15-.09-.12-.47-.18-.71.21-.04.47-.18.63-.1,1.01.5,2,1.04,3,1.57.28.15.56.31.84.46.17.09.35.18.53.26Z"/>
      <path d="m91.6,139.08c.5.86.46,1-.28,1.4-1.05.58-2.09,1.19-3.17,1.72-.26.13-.65,0-.98,0,.16-.26.25-.62.48-.77,1.28-.81,2.6-1.56,3.94-2.35Z"/>
      <path d="m5.75,95.47c0-.62-.04-1.23.02-1.84.03-.25.28-.48.42-.71.19.22.5.42.53.66.08.66.05,1.33.04,1.99,0,.71,0,1.43-.08,2.14-.02.22-.27.41-.42.61-.17-.21-.47-.41-.49-.63-.06-.73-.02-1.47-.02-2.21,0,0,0,0,0,0Z"/>
      <path d="m18.45,36.71c-1.4.78-2.81,1.58-4.23,2.35-.14.07-.51,0-.55-.1-.07-.19-.06-.5.05-.66.15-.2.44-.31.67-.44.93-.55,1.87-1.09,2.79-1.66.78-.48.92-.45,1.27.51Z"/>
      <path d="m50.6,17.97c-.09-.11-.31-.26-.3-.38.02-.24.11-.56.28-.67.53-.35,1.11-.62,1.67-.93.67-.37,1.33-.74,1.99-1.13.3-.17.6-.25.7.15.06.23,0,.65-.16.73-1.27.74-2.58,1.42-3.88,2.12-.06.03-.14.05-.3.11Z"/>
      <path d="m49.85,67.83c-.31.02-.7.17-.93.04-1.24-.65-2.44-1.36-3.64-2.09-.16-.1-.2-.39-.29-.59.23-.09.54-.33.68-.25,1.43.8,2.83,1.64,4.24,2.47-.02.14-.04.28-.06.41Z"/>
      <path d="m103.49,26.14c-.4.11-.71.3-.94.23-.43-.14-.82-.43-1.22-.66-.85-.5-1.7-.98-2.52-1.53-.18-.12-.21-.45-.3-.69.23-.04.53-.2.69-.11,1.29.7,2.56,1.45,3.83,2.19.13.08.21.25.46.56Z"/>
      <path d="m101.25,134.52c-.17.16-.32.36-.52.48-1.13.69-2.27,1.37-3.43,2.01-.21.11-.56-.03-.84-.05.08-.27.09-.67.26-.78,1.17-.71,2.37-1.39,3.6-2.02.23-.12.6.05.91.09,0,.09.01.18.02.27Z"/>
      <path d="m123.23,48.51c-.12.11-.26.31-.45.42-1.17.67-2.34,1.34-3.53,1.97-.18.1-.48-.03-.73-.05.07-.27.05-.68.22-.78,1.2-.72,2.43-1.37,3.66-2.04.4-.22.71-.13.83.48Z"/>
      <path d="m55.26,143.9c.02.56-.38.83-.77.61-1.26-.72-2.51-1.44-3.74-2.2-.16-.1-.16-.48-.23-.72.23-.03.52-.16.69-.08,1.24.64,2.46,1.32,3.68,2.01.17.1.29.3.37.39Z"/>
      <path d="m109.92,128.51c.6.81.57.92-.24,1.36-.97.53-1.94,1.07-2.91,1.6-.17.09-.35.24-.53.24-.24,0-.49-.1-.73-.17.1-.21.15-.46.31-.61.16-.17.42-.25.63-.38,1.14-.67,2.29-1.34,3.48-2.04Z"/>
      <path d="m27.57,31.23c-.06.07-.13.2-.25.27-1.23.72-2.46,1.45-3.72,2.13-.2.11-.54-.03-.81-.05.12-.26.17-.64.37-.77,1.13-.7,2.29-1.36,3.45-2,.5-.27.98-.06.96.42Z"/>
      <path d="m82.16,72.47c-.12-.11-.32-.21-.33-.33-.02-.19.02-.49.15-.57,1.28-.78,2.57-1.53,3.88-2.26.13-.07.4.12.6.19-.1.27-.13.66-.32.77-1.2.72-2.44,1.37-3.67,2.04-.08.05-.18.08-.31.14Z"/>
      <path d="m82.83,145.21c-.14.13-.29.33-.49.44-1.13.65-2.27,1.3-3.43,1.9-.21.11-.54,0-.82-.02.09-.27.1-.67.29-.78,1.19-.7,2.41-1.35,3.63-1.99.4-.21.72-.15.82.45Z"/>
      <path d="m89.22,18.49c.28-.55.6-.62,1.09-.31,1.13.69,2.29,1.32,3.42,2.01.17.11.23.42.33.63-.24.06-.54.24-.7.16-1.34-.71-2.65-1.47-3.97-2.23-.08-.04-.11-.16-.18-.26Z"/>
      <path d="m59.44,147.13c.44-.52.84-.54,1.31-.25,1.06.66,2.15,1.28,3.19,1.97.21.14.29.48.42.73-.28.02-.62.15-.84.04-1.19-.62-2.36-1.3-3.53-1.97-.2-.12-.35-.32-.56-.52Z"/>
      <path d="m27.75,128.26c-.25.09-.58.32-.75.23-1.31-.67-2.6-1.39-3.87-2.14-.15-.09-.17-.41-.25-.62.27-.05.59-.21.8-.12.78.36,1.52.81,2.27,1.22.47.26.94.54,1.41.8.18.09.37.15.56.22-.06.13-.11.26-.17.39Z"/>
      <path d="m31.49,56.83c-.26.58-.55.71-.96.48-1.18-.66-2.36-1.31-3.51-2.01-.2-.12-.43-.54-.36-.71.15-.37.52-.36.87-.15,1.31.8,2.63,1.59,3.97,2.39Z"/>
      <path d="m32.25,28.54c-.09-.1-.31-.26-.29-.36.05-.25.16-.58.36-.7.99-.6,2.01-1.14,3.02-1.71.21-.12.41-.32.64-.36.18-.03.51.06.57.2.09.18.08.61-.04.67-1.3.75-2.63,1.46-3.95,2.17-.06.03-.14.04-.32.1Z"/>
      <path d="m115.22,126.56c-.11-.08-.35-.18-.42-.34-.06-.12.05-.43.17-.5,1.29-.77,2.59-1.52,3.91-2.23.14-.07.44.09.62.21.04.03-.04.42-.16.49-1.28.79-2.58,1.54-3.87,2.3-.04.02-.09.03-.24.07Z"/>
      <path d="m100.44,61.78c-.09-.12-.29-.27-.29-.41,0-.21.1-.5.25-.6.68-.43,1.4-.81,2.11-1.2.54-.3,1.06-.62,1.62-.87.16-.07.56.01.59.11.07.2.04.6-.08.68-1.31.77-2.65,1.5-3.98,2.23-.04.02-.09.03-.22.06Z"/>
      <path d="m41.15,136.48c.36-.46.71-.48,1.14-.22,1.09.66,2.21,1.29,3.29,1.97.21.13.28.47.41.72-.26.02-.58.15-.79.05-1.22-.63-2.42-1.3-3.62-1.98-.19-.11-.3-.35-.44-.53Z"/>
      <path d="m108.11,28.51c.23.1.39.15.54.24,1.06.62,2.13,1.24,3.19,1.86.15.09.31.18.41.31.1.14.14.34.2.51-.19.07-.39.21-.57.18-.26-.04-.51-.18-.74-.31-1.04-.57-2.08-1.13-3.1-1.73-.18-.1-.38-.38-.36-.55.02-.18.28-.35.44-.52Z"/>
    </g>
  </g>
</svg>